<?xml version="1.0" encoding="UTF-8"?>
<svg xmlns="http://www.w3.org/2000/svg" xmlns:xlink="http://www.w3.org/1999/xlink" width="16px" height="16px" viewBox="0 0 16 16" version="1.1">
<g id="surface1">
<path style=" stroke:none;fill-rule:nonzero;fill:rgb(98.823529%,80.784315%,96.862745%);fill-opacity:1;" d="M 8.550781 0 C 8.9375 0.164062 9.289062 0.386719 9.644531 0.617188 C 9.855469 0.746094 10.066406 0.875 10.28125 1.003906 C 10.597656 1.203125 10.921875 1.40625 11.246094 1.609375 C 11.609375 1.835938 11.972656 2.058594 12.339844 2.269531 C 12.433594 2.332031 12.527344 2.390625 12.625 2.445312 C 12.808594 2.554688 12.992188 2.667969 13.175781 2.777344 C 14.492188 3.566406 14.492188 3.566406 14.710938 4.136719 C 14.730469 4.386719 14.738281 4.632812 14.738281 4.882812 C 14.738281 4.957031 14.738281 5.03125 14.738281 5.101562 C 14.738281 5.355469 14.738281 5.601562 14.738281 5.847656 C 14.738281 6.019531 14.738281 6.191406 14.738281 6.363281 C 14.738281 6.726562 14.738281 7.082031 14.738281 7.4375 C 14.738281 7.898438 14.742188 8.359375 14.75 8.820312 C 14.75 9.175781 14.75 9.53125 14.75 9.886719 C 14.75 10.058594 14.75 10.226562 14.75 10.390625 C 14.75 10.628906 14.75 10.867188 14.75 11.109375 C 14.75 11.175781 14.75 11.246094 14.75 11.320312 C 14.738281 11.816406 14.640625 12.121094 14.28125 12.476562 C 13.785156 12.863281 13.25 13.1875 12.699219 13.507812 C 12.148438 13.820312 11.605469 14.152344 11.070312 14.492188 C 10.492188 14.851562 9.902344 15.210938 9.324219 15.566406 C 9.269531 15.597656 9.210938 15.632812 9.148438 15.667969 C 8.632812 15.980469 8.230469 16.074219 7.632812 16 C 6.988281 15.742188 6.398438 15.367188 5.820312 14.996094 C 5.65625 14.886719 5.488281 14.78125 5.316406 14.675781 C 5.230469 14.621094 5.140625 14.566406 5.046875 14.511719 C 4.773438 14.339844 4.496094 14.171875 4.21875 14.003906 C 4.128906 13.949219 4.035156 13.890625 3.9375 13.828125 C 3.757812 13.726562 3.578125 13.617188 3.402344 13.507812 C 1.515625 12.378906 1.515625 12.378906 1.289062 11.679688 C 1.273438 11.445312 1.269531 11.210938 1.269531 10.980469 C 1.269531 10.910156 1.269531 10.839844 1.269531 10.769531 C 1.261719 10.535156 1.261719 10.300781 1.261719 10.070312 C 1.261719 9.949219 1.261719 9.949219 1.261719 9.828125 C 1.261719 9.402344 1.257812 8.976562 1.25 8.550781 C 1.25 8.203125 1.25 7.851562 1.25 7.503906 C 1.246094 7.082031 1.242188 6.65625 1.242188 6.234375 C 1.242188 6.074219 1.238281 5.914062 1.230469 5.757812 C 1.214844 4.21875 1.214844 4.21875 1.617188 3.714844 C 1.792969 3.539062 1.957031 3.394531 2.160156 3.265625 C 2.242188 3.214844 2.320312 3.164062 2.398438 3.109375 C 2.484375 3.054688 2.574219 2.996094 2.667969 2.941406 C 2.757812 2.886719 2.855469 2.828125 2.953125 2.769531 C 3.257812 2.578125 3.566406 2.386719 3.878906 2.199219 C 3.992188 2.128906 4.105469 2.0625 4.21875 1.996094 C 4.390625 1.890625 4.5625 1.785156 4.734375 1.683594 C 5.398438 1.285156 6.058594 0.882812 6.722656 0.476562 C 6.800781 0.429688 6.882812 0.378906 6.96875 0.332031 C 7.039062 0.289062 7.109375 0.242188 7.179688 0.191406 C 7.632812 -0.0742188 8.035156 -0.0820312 8.550781 0 Z M 8.550781 0 "/>
<path style=" stroke:none;fill-rule:nonzero;fill:rgb(76.47059%,1.176471%,93.725491%);fill-opacity:1;" d="M 5.371094 6.703125 C 5.46875 6.703125 5.570312 6.703125 5.671875 6.703125 C 5.785156 6.703125 5.894531 6.703125 6.003906 6.703125 C 6.113281 6.703125 6.226562 6.703125 6.34375 6.703125 C 6.699219 6.703125 7.058594 6.703125 7.421875 6.703125 C 7.660156 6.703125 7.902344 6.707031 8.148438 6.710938 C 8.742188 6.710938 9.335938 6.710938 9.929688 6.710938 C 9.867188 7.007812 9.765625 7.21875 9.601562 7.464844 C 9.5625 7.535156 9.523438 7.601562 9.480469 7.667969 C 9.425781 7.742188 9.425781 7.742188 9.378906 7.816406 C 9.460938 7.75 9.460938 7.75 9.554688 7.679688 C 9.746094 7.539062 9.746094 7.539062 9.929688 7.539062 C 9.929688 7.480469 9.929688 7.417969 9.929688 7.355469 C 10.179688 7.226562 10.371094 7.253906 10.65625 7.253906 C 10.761719 7.253906 10.867188 7.253906 10.980469 7.253906 C 11.089844 7.253906 11.203125 7.253906 11.320312 7.253906 C 11.4375 7.253906 11.550781 7.257812 11.667969 7.265625 C 11.945312 7.265625 12.222656 7.265625 12.503906 7.265625 C 12.511719 7.792969 12.519531 8.316406 12.523438 8.835938 C 12.523438 9.015625 12.527344 9.195312 12.535156 9.378906 C 12.539062 9.636719 12.542969 9.890625 12.542969 10.140625 C 12.542969 10.222656 12.546875 10.304688 12.550781 10.390625 C 12.550781 11.179688 12.210938 11.632812 11.6875 12.210938 C 11.609375 12.296875 11.527344 12.382812 11.449219 12.46875 C 11.089844 12.808594 10.769531 12.902344 10.28125 12.890625 C 10.140625 12.890625 10.140625 12.890625 10.003906 12.890625 C 9.90625 12.890625 9.808594 12.890625 9.710938 12.890625 C 9.605469 12.890625 9.5 12.890625 9.398438 12.890625 C 9.078125 12.890625 8.757812 12.890625 8.433594 12.882812 C 8.210938 12.882812 7.992188 12.882812 7.769531 12.882812 C 7.238281 12.882812 6.699219 12.878906 6.160156 12.875 C 6.269531 12.550781 6.398438 12.3125 6.621094 12.054688 C 6.667969 11.988281 6.722656 11.921875 6.777344 11.863281 C 6.832031 11.792969 6.886719 11.726562 6.941406 11.660156 C 6.996094 11.59375 7.054688 11.523438 7.109375 11.457031 C 7.679688 10.769531 7.679688 10.769531 7.953125 10.730469 C 8.046875 10.730469 8.136719 10.730469 8.230469 10.730469 C 8.335938 10.726562 8.4375 10.722656 8.542969 10.722656 C 8.648438 10.714844 8.753906 10.710938 8.863281 10.710938 C 9.074219 10.707031 9.28125 10.699219 9.488281 10.695312 C 9.582031 10.695312 9.675781 10.695312 9.773438 10.695312 C 10.050781 10.675781 10.050781 10.675781 10.390625 10.484375 C 10.390625 10.023438 10.390625 9.574219 10.390625 9.101562 C 8.902344 9.101562 7.421875 9.101562 5.886719 9.101562 C 5.886719 9.773438 5.886719 10.4375 5.886719 11.125 C 5.535156 11.632812 5.296875 11.925781 4.875 12.320312 C 4.800781 12.425781 4.726562 12.527344 4.652344 12.625 C 4.414062 12.875 4.414062 12.875 4.230469 12.902344 C 3.953125 12.882812 3.953125 12.882812 3.679688 12.875 C 3.671875 12.164062 3.664062 11.453125 3.660156 10.738281 C 3.660156 10.5 3.65625 10.261719 3.652344 10.023438 C 3.644531 9.671875 3.640625 9.324219 3.640625 8.976562 C 3.640625 8.871094 3.636719 8.761719 3.632812 8.652344 C 3.632812 7.953125 3.707031 7.613281 4.191406 7.117188 C 4.597656 6.785156 4.855469 6.703125 5.371094 6.703125 Z M 5.371094 6.703125 "/>
<path style=" stroke:none;fill-rule:nonzero;fill:rgb(36.470589%,1.568628%,97.254902%);fill-opacity:1;" d="M 10.300781 7.265625 C 11.023438 7.265625 11.75 7.265625 12.503906 7.265625 C 12.511719 7.792969 12.519531 8.316406 12.523438 8.835938 C 12.523438 9.015625 12.527344 9.195312 12.535156 9.378906 C 12.539062 9.636719 12.542969 9.890625 12.542969 10.140625 C 12.542969 10.222656 12.546875 10.304688 12.550781 10.390625 C 12.550781 11.179688 12.210938 11.632812 11.6875 12.210938 C 11.566406 12.339844 11.566406 12.339844 11.449219 12.46875 C 11.089844 12.808594 10.769531 12.902344 10.28125 12.890625 C 10.140625 12.890625 10.140625 12.890625 10.003906 12.890625 C 9.90625 12.890625 9.808594 12.890625 9.710938 12.890625 C 9.605469 12.890625 9.5 12.890625 9.398438 12.890625 C 9.078125 12.890625 8.757812 12.890625 8.433594 12.882812 C 8.210938 12.882812 7.992188 12.882812 7.769531 12.882812 C 7.238281 12.882812 6.699219 12.878906 6.160156 12.875 C 6.269531 12.550781 6.398438 12.3125 6.621094 12.054688 C 6.695312 11.953125 6.695312 11.953125 6.777344 11.863281 C 6.832031 11.792969 6.886719 11.726562 6.941406 11.660156 C 6.996094 11.59375 7.054688 11.523438 7.109375 11.457031 C 7.679688 10.769531 7.679688 10.769531 7.953125 10.730469 C 8.046875 10.730469 8.136719 10.730469 8.230469 10.730469 C 8.335938 10.726562 8.4375 10.722656 8.542969 10.722656 C 8.648438 10.714844 8.753906 10.710938 8.863281 10.710938 C 9.074219 10.707031 9.28125 10.699219 9.488281 10.695312 C 9.582031 10.695312 9.675781 10.695312 9.773438 10.695312 C 10.050781 10.675781 10.050781 10.675781 10.390625 10.484375 C 10.34375 8.890625 10.34375 8.890625 10.300781 7.265625 Z M 10.300781 7.265625 "/>
<path style=" stroke:none;fill-rule:nonzero;fill:rgb(98.431373%,4.705882%,63.921571%);fill-opacity:1;" d="M 6.003906 3.109375 C 6.070312 3.109375 6.140625 3.109375 6.214844 3.109375 C 6.4375 3.109375 6.660156 3.109375 6.886719 3.109375 C 7.046875 3.109375 7.203125 3.109375 7.355469 3.109375 C 7.765625 3.109375 8.179688 3.109375 8.589844 3.117188 C 9.011719 3.117188 9.429688 3.117188 9.847656 3.117188 C 10.675781 3.117188 11.5 3.121094 12.320312 3.125 C 12.234375 3.242188 12.148438 3.359375 12.0625 3.476562 C 12.015625 3.539062 11.964844 3.601562 11.917969 3.667969 C 11.867188 3.730469 11.820312 3.792969 11.769531 3.863281 C 11.707031 3.953125 11.707031 3.953125 11.632812 4.046875 C 11.507812 4.207031 11.386719 4.363281 11.265625 4.523438 C 11.222656 4.578125 11.179688 4.636719 11.136719 4.699219 C 11.097656 4.746094 11.058594 4.800781 11.015625 4.855469 C 10.980469 4.902344 10.941406 4.953125 10.90625 5.003906 C 10.601562 5.316406 10.316406 5.5 9.886719 5.5625 C 9.769531 5.5625 9.648438 5.5625 9.527344 5.5625 C 9.425781 5.5625 9.425781 5.5625 9.332031 5.5625 C 9.117188 5.558594 8.902344 5.554688 8.679688 5.554688 C 8.535156 5.554688 8.386719 5.554688 8.238281 5.554688 C 7.847656 5.546875 7.453125 5.542969 7.054688 5.542969 C 6.65625 5.539062 6.257812 5.535156 5.859375 5.535156 C 5.066406 5.53125 4.277344 5.523438 3.496094 5.515625 C 3.578125 5.132812 3.769531 4.875 4.019531 4.570312 C 4.0625 4.515625 4.105469 4.460938 4.148438 4.40625 C 5.175781 3.097656 5.175781 3.097656 6.003906 3.109375 Z M 6.003906 3.109375 "/>
<path style=" stroke:none;fill-rule:nonzero;fill:rgb(69.411767%,52.156866%,88.235295%);fill-opacity:1;" d="M 10.300781 7.265625 C 10.492188 7.84375 10.390625 8.488281 10.390625 9.101562 C 8.9375 9.101562 7.476562 9.101562 5.976562 9.101562 C 5.976562 9.074219 5.976562 9.042969 5.976562 9.011719 C 6.039062 9.011719 6.101562 9.015625 6.160156 9.019531 C 7.429688 9.121094 7.429688 9.121094 8.550781 8.671875 C 8.800781 8.414062 9.003906 8.121094 9.195312 7.816406 C 9.257812 7.753906 9.316406 7.695312 9.378906 7.632812 C 9.378906 7.695312 9.378906 7.753906 9.378906 7.816406 C 9.433594 7.773438 9.492188 7.726562 9.554688 7.679688 C 9.746094 7.539062 9.746094 7.539062 9.929688 7.539062 C 9.929688 7.480469 9.929688 7.417969 9.929688 7.355469 C 10.113281 7.265625 10.113281 7.265625 10.300781 7.265625 Z M 10.300781 7.265625 "/>
<path style=" stroke:none;fill-rule:nonzero;fill:rgb(56.470591%,30.588236%,90.588236%);fill-opacity:1;" d="M 10.300781 7.265625 C 10.417969 7.613281 10.398438 7.9375 10.398438 8.292969 C 10.398438 8.363281 10.398438 8.433594 10.390625 8.503906 C 10.390625 8.671875 10.390625 8.839844 10.390625 9.011719 C 10.085938 9.011719 9.785156 9.011719 9.472656 9.011719 C 9.398438 8.644531 9.371094 8.367188 9.472656 8 C 9.53125 8.0625 9.59375 8.121094 9.65625 8.183594 C 9.671875 8.121094 9.691406 8.0625 9.710938 8.007812 C 9.734375 7.929688 9.757812 7.851562 9.785156 7.78125 C 9.808594 7.699219 9.828125 7.621094 9.847656 7.550781 C 9.957031 7.300781 10.03125 7.265625 10.300781 7.265625 Z M 10.300781 7.265625 "/>
<path style=" stroke:none;fill-rule:nonzero;fill:rgb(44.705883%,16.078432%,84.313726%);fill-opacity:1;" d="M 10.484375 9.011719 C 10.511719 9.011719 10.542969 9.011719 10.574219 9.011719 C 10.585938 9.25 10.597656 9.488281 10.601562 9.730469 C 10.601562 9.828125 10.601562 9.828125 10.613281 9.929688 C 10.613281 10.132812 10.613281 10.132812 10.574219 10.484375 C 10.390625 10.648438 10.390625 10.648438 10.207031 10.757812 C 10.160156 10.898438 10.160156 10.898438 10.113281 11.035156 C 10.054688 11.003906 9.992188 10.972656 9.929688 10.941406 C 9.773438 10.9375 9.613281 10.933594 9.453125 10.933594 C 9.304688 10.933594 9.304688 10.933594 9.160156 10.933594 C 9.058594 10.933594 8.960938 10.933594 8.863281 10.933594 C 8.765625 10.933594 8.664062 10.9375 8.5625 10.941406 C 8.308594 10.941406 8.0625 10.941406 7.816406 10.941406 C 7.785156 11.035156 7.753906 11.125 7.722656 11.21875 C 7.664062 11.21875 7.601562 11.21875 7.539062 11.21875 C 7.507812 11.308594 7.480469 11.402344 7.449219 11.496094 C 7.386719 11.496094 7.324219 11.496094 7.265625 11.496094 C 7.238281 11.550781 7.210938 11.605469 7.179688 11.660156 C 7.082031 11.863281 7.082031 11.863281 6.898438 12.136719 C 6.804688 12.105469 6.710938 12.078125 6.621094 12.046875 C 6.785156 11.851562 6.953125 11.652344 7.117188 11.457031 C 7.167969 11.394531 7.214844 11.339844 7.265625 11.28125 C 7.621094 10.859375 7.621094 10.859375 7.722656 10.757812 C 7.890625 10.746094 8.054688 10.738281 8.21875 10.738281 C 8.324219 10.734375 8.429688 10.730469 8.535156 10.730469 C 8.746094 10.726562 8.960938 10.71875 9.175781 10.710938 C 9.28125 10.707031 9.386719 10.703125 9.488281 10.703125 C 9.582031 10.699219 9.675781 10.695312 9.773438 10.695312 C 10.023438 10.667969 10.179688 10.613281 10.390625 10.484375 C 10.390625 10.382812 10.390625 10.285156 10.390625 10.1875 C 10.390625 10.058594 10.386719 9.929688 10.382812 9.800781 C 10.382812 9.734375 10.382812 9.667969 10.382812 9.601562 C 10.382812 9.433594 10.382812 9.269531 10.390625 9.101562 C 10.421875 9.074219 10.453125 9.042969 10.484375 9.011719 Z M 10.484375 9.011719 "/>
<path style=" stroke:none;fill-rule:nonzero;fill:rgb(36.078432%,9.019608%,81.176472%);fill-opacity:1;" d="M 6.527344 12.136719 C 6.628906 12.3125 6.628906 12.3125 6.710938 12.503906 C 6.683594 12.566406 6.652344 12.628906 6.621094 12.691406 C 6.558594 12.660156 6.5 12.628906 6.4375 12.597656 C 6.4375 12.660156 6.4375 12.71875 6.4375 12.78125 C 6.96875 12.769531 7.503906 12.757812 8.035156 12.746094 C 8.21875 12.746094 8.40625 12.742188 8.589844 12.734375 C 8.851562 12.730469 9.113281 12.722656 9.371094 12.71875 C 9.449219 12.71875 9.53125 12.71875 9.617188 12.71875 C 10.125 12.699219 10.621094 12.660156 11.125 12.597656 C 11.082031 12.414062 11.082031 12.414062 11.035156 12.230469 C 11.21875 12.230469 11.402344 12.230469 11.585938 12.230469 C 11.339844 12.578125 11.164062 12.746094 10.757812 12.875 C 10.527344 12.890625 10.527344 12.890625 10.28125 12.890625 C 10.140625 12.890625 10.140625 12.890625 10.003906 12.890625 C 9.90625 12.890625 9.808594 12.890625 9.710938 12.890625 C 9.605469 12.890625 9.5 12.890625 9.398438 12.890625 C 9.078125 12.890625 8.757812 12.890625 8.433594 12.882812 C 8.210938 12.882812 7.992188 12.882812 7.769531 12.882812 C 7.238281 12.882812 6.699219 12.878906 6.160156 12.875 C 6.261719 12.597656 6.363281 12.386719 6.527344 12.136719 Z M 6.527344 12.136719 "/>
<path style=" stroke:none;fill-rule:nonzero;fill:rgb(36.078432%,6.27451%,75.686276%);fill-opacity:1;" d="M 10.484375 7.265625 C 11.152344 7.265625 11.816406 7.265625 12.503906 7.265625 C 12.511719 7.792969 12.519531 8.316406 12.523438 8.835938 C 12.523438 9.015625 12.527344 9.195312 12.535156 9.378906 C 12.539062 9.636719 12.542969 9.890625 12.542969 10.140625 C 12.542969 10.222656 12.546875 10.304688 12.550781 10.390625 C 12.550781 11.171875 12.191406 11.660156 11.679688 12.230469 C 11.648438 12.230469 11.617188 12.230469 11.585938 12.230469 C 11.585938 12.078125 11.585938 11.921875 11.585938 11.769531 C 11.738281 11.707031 11.894531 11.648438 12.046875 11.585938 C 12.046875 11.433594 12.046875 11.28125 12.046875 11.125 C 12.136719 11.125 12.230469 11.125 12.320312 11.125 C 12.347656 9.886719 12.386719 8.632812 12.414062 7.355469 C 11.78125 7.355469 11.136719 7.355469 10.484375 7.355469 C 10.484375 7.324219 10.484375 7.296875 10.484375 7.265625 Z M 10.484375 7.265625 "/>
<path style=" stroke:none;fill-rule:nonzero;fill:rgb(38.431373%,5.098039%,89.411765%);fill-opacity:1;" d="M 10.300781 7.265625 C 10.996094 7.292969 11.695312 7.328125 12.414062 7.355469 C 12.414062 8.503906 12.414062 9.664062 12.414062 10.851562 C 12.382812 10.851562 12.351562 10.851562 12.320312 10.851562 C 12.320312 9.730469 12.320312 8.605469 12.320312 7.449219 C 11.550781 7.496094 11.550781 7.496094 10.757812 7.539062 C 10.730469 7.78125 10.695312 8.027344 10.667969 8.277344 C 10.574219 8.277344 10.484375 8.277344 10.390625 8.277344 C 10.363281 7.945312 10.328125 7.605469 10.300781 7.265625 Z M 10.300781 7.265625 "/>
<path style=" stroke:none;fill-rule:nonzero;fill:rgb(34.117648%,4.705882%,93.725491%);fill-opacity:1;" d="M 7.265625 11.496094 C 7.324219 11.523438 7.386719 11.554688 7.449219 11.585938 C 7.347656 11.898438 7.21875 12.007812 6.988281 12.230469 C 6.957031 12.292969 6.925781 12.351562 6.898438 12.414062 C 6.957031 12.414062 7.019531 12.414062 7.082031 12.414062 C 7.109375 12.476562 7.140625 12.535156 7.171875 12.597656 C 7.402344 12.605469 7.605469 12.605469 7.835938 12.542969 C 8 12.503906 8 12.503906 8.183594 12.597656 C 8.449219 12.617188 8.710938 12.632812 8.976562 12.652344 C 9.046875 12.652344 9.125 12.65625 9.203125 12.660156 C 9.382812 12.675781 9.5625 12.683594 9.746094 12.691406 C 9.746094 12.71875 9.746094 12.75 9.746094 12.78125 C 8.652344 12.78125 7.558594 12.78125 6.4375 12.78125 C 6.4375 12.71875 6.4375 12.660156 6.4375 12.597656 C 6.5 12.566406 6.558594 12.535156 6.621094 12.503906 C 6.621094 12.382812 6.621094 12.261719 6.621094 12.136719 C 6.710938 12.136719 6.804688 12.136719 6.898438 12.136719 C 6.921875 12.082031 6.949219 12.027344 6.980469 11.972656 C 7.082031 11.769531 7.082031 11.769531 7.265625 11.496094 Z M 7.265625 11.496094 "/>
<path style=" stroke:none;fill-rule:nonzero;fill:rgb(81.960785%,45.490196%,96.078432%);fill-opacity:1;" d="M 9.289062 7.632812 C 9.347656 7.722656 9.410156 7.816406 9.472656 7.90625 C 9.433594 7.945312 9.394531 7.980469 9.351562 8.019531 C 9.1875 8.183594 9.1875 8.183594 9.066406 8.40625 C 8.847656 8.753906 8.671875 8.976562 8.277344 9.101562 C 8.097656 9.109375 7.921875 9.113281 7.742188 9.113281 C 7.644531 9.113281 7.539062 9.113281 7.429688 9.113281 C 7.324219 9.113281 7.21875 9.113281 7.109375 9.113281 C 7.003906 9.113281 6.894531 9.109375 6.777344 9.101562 C 6.511719 9.101562 6.246094 9.101562 5.976562 9.101562 C 5.976562 9.074219 5.976562 9.042969 5.976562 9.011719 C 6.070312 9.011719 6.070312 9.011719 6.160156 9.019531 C 7.429688 9.121094 7.429688 9.121094 8.550781 8.671875 C 8.855469 8.367188 9.09375 8.019531 9.289062 7.632812 Z M 9.289062 7.632812 "/>
<path style=" stroke:none;fill-rule:nonzero;fill:rgb(60.784316%,40.784314%,84.705883%);fill-opacity:1;" d="M 10.113281 7.265625 C 10.175781 7.296875 10.238281 7.324219 10.300781 7.355469 C 10.257812 7.398438 10.214844 7.445312 10.171875 7.496094 C 10.023438 7.722656 10.003906 7.824219 9.976562 8.09375 C 9.949219 8.414062 9.886719 8.589844 9.65625 8.828125 C 9.839844 8.859375 10.023438 8.890625 10.207031 8.917969 C 10.207031 8.949219 10.207031 8.980469 10.207031 9.011719 C 9.96875 9.011719 9.71875 9.011719 9.472656 9.011719 C 9.398438 8.644531 9.371094 8.367188 9.472656 8 C 9.53125 8.0625 9.59375 8.121094 9.65625 8.183594 C 9.671875 8.121094 9.691406 8.0625 9.710938 8.007812 C 9.734375 7.929688 9.757812 7.851562 9.785156 7.78125 C 9.808594 7.699219 9.828125 7.621094 9.847656 7.550781 C 9.929688 7.355469 9.929688 7.355469 10.113281 7.265625 Z M 10.113281 7.265625 "/>
<path style=" stroke:none;fill-rule:nonzero;fill:rgb(37.254903%,12.54902%,78.823531%);fill-opacity:1;" d="M 7.953125 10.75 C 8.09375 10.75 8.09375 10.75 8.238281 10.75 C 8.332031 10.753906 8.421875 10.757812 8.515625 10.757812 C 8.625 10.757812 8.625 10.757812 8.734375 10.757812 C 8.734375 10.789062 8.734375 10.820312 8.734375 10.851562 C 8.433594 10.878906 8.128906 10.914062 7.816406 10.941406 C 7.785156 11.035156 7.753906 11.125 7.722656 11.21875 C 7.664062 11.21875 7.601562 11.21875 7.539062 11.21875 C 7.507812 11.308594 7.480469 11.402344 7.449219 11.496094 C 7.386719 11.496094 7.324219 11.496094 7.265625 11.496094 C 7.238281 11.550781 7.210938 11.605469 7.179688 11.660156 C 7.082031 11.863281 7.082031 11.863281 6.898438 12.136719 C 6.804688 12.105469 6.710938 12.078125 6.621094 12.046875 C 6.785156 11.851562 6.953125 11.652344 7.117188 11.457031 C 7.167969 11.394531 7.214844 11.339844 7.265625 11.28125 C 7.707031 10.757812 7.707031 10.757812 7.953125 10.75 Z M 7.953125 10.75 "/>
<path style=" stroke:none;fill-rule:nonzero;fill:rgb(40.784314%,9.411765%,82.352942%);fill-opacity:1;" d="M 12.320312 10.851562 C 12.351562 10.851562 12.382812 10.851562 12.414062 10.851562 C 12.449219 11.164062 12.421875 11.292969 12.257812 11.558594 C 12.15625 11.679688 12.15625 11.679688 12.054688 11.796875 C 11.988281 11.878906 11.917969 11.960938 11.84375 12.046875 C 11.789062 12.105469 11.734375 12.167969 11.679688 12.230469 C 11.648438 12.230469 11.617188 12.230469 11.585938 12.230469 C 11.585938 12.078125 11.585938 11.921875 11.585938 11.769531 C 11.738281 11.707031 11.894531 11.648438 12.046875 11.585938 C 12.046875 11.433594 12.046875 11.28125 12.046875 11.125 C 12.136719 11.125 12.230469 11.125 12.320312 11.125 C 12.320312 11.035156 12.320312 10.941406 12.320312 10.851562 Z M 12.320312 10.851562 "/>
<path style=" stroke:none;fill-rule:nonzero;fill:rgb(41.176471%,9.803922%,85.09804%);fill-opacity:1;" d="M 11.035156 12.230469 C 11.21875 12.230469 11.402344 12.230469 11.585938 12.230469 C 11.320312 12.617188 11.125 12.761719 10.667969 12.875 C 10.667969 12.78125 10.667969 12.691406 10.667969 12.597656 C 10.820312 12.597656 10.972656 12.597656 11.125 12.597656 C 11.097656 12.476562 11.066406 12.351562 11.035156 12.230469 Z M 11.035156 12.230469 "/>
<path style=" stroke:none;fill-rule:nonzero;fill:rgb(37.64706%,4.313726%,94.117647%);fill-opacity:1;" d="M 10.390625 8.277344 C 10.574219 8.277344 10.757812 8.277344 10.941406 8.277344 C 10.882812 8.398438 10.820312 8.519531 10.757812 8.644531 C 10.699219 8.613281 10.636719 8.582031 10.574219 8.550781 C 10.542969 8.734375 10.511719 8.917969 10.484375 9.101562 C 10.453125 9.101562 10.421875 9.101562 10.390625 9.101562 C 10.390625 8.828125 10.390625 8.5625 10.390625 8.277344 Z M 10.390625 8.277344 "/>
</g>
</svg>
