<?xml version="1.0" encoding="UTF-8"?>
<svg xmlns="http://www.w3.org/2000/svg" xmlns:xlink="http://www.w3.org/1999/xlink" width="32px" height="32px" viewBox="0 0 32 32" version="1.1">
<g id="surface1">
<path style=" stroke:none;fill-rule:nonzero;fill:rgb(98.823529%,80.784315%,96.862745%);fill-opacity:1;" d="M 17.101562 0 C 17.875 0.332031 18.574219 0.773438 19.292969 1.230469 C 19.707031 1.488281 20.132812 1.746094 20.5625 2.003906 C 21.199219 2.410156 21.84375 2.8125 22.492188 3.21875 C 23.214844 3.671875 23.945312 4.113281 24.679688 4.542969 C 24.863281 4.664062 25.054688 4.78125 25.25 4.890625 C 25.617188 5.113281 25.984375 5.332031 26.355469 5.554688 C 28.984375 7.136719 28.984375 7.136719 29.425781 8.277344 C 29.460938 8.773438 29.480469 9.269531 29.480469 9.765625 C 29.480469 9.914062 29.480469 10.058594 29.480469 10.207031 C 29.480469 10.710938 29.480469 11.207031 29.480469 11.695312 C 29.480469 12.039062 29.480469 12.382812 29.480469 12.726562 C 29.480469 13.449219 29.480469 14.167969 29.480469 14.878906 C 29.480469 15.796875 29.488281 16.71875 29.5 17.636719 C 29.5 18.347656 29.5 19.058594 29.5 19.769531 C 29.5 20.113281 29.5 20.449219 29.5 20.78125 C 29.5 21.261719 29.5 21.738281 29.5 22.214844 C 29.5 22.351562 29.5 22.492188 29.5 22.640625 C 29.480469 23.632812 29.277344 24.238281 28.5625 24.957031 C 27.566406 25.730469 26.5 26.371094 25.398438 27.015625 C 24.292969 27.640625 23.210938 28.304688 22.140625 28.984375 C 20.984375 29.699219 19.808594 30.417969 18.648438 31.136719 C 18.539062 31.195312 18.421875 31.265625 18.300781 31.339844 C 17.269531 31.964844 16.460938 32.148438 15.265625 32 C 13.976562 31.484375 12.800781 30.730469 11.640625 29.996094 C 11.308594 29.773438 10.972656 29.558594 10.628906 29.351562 C 10.457031 29.242188 10.28125 29.132812 10.097656 29.019531 C 9.542969 28.675781 8.992188 28.339844 8.441406 28.007812 C 8.257812 27.898438 8.066406 27.78125 7.871094 27.660156 C 7.515625 27.453125 7.160156 27.238281 6.804688 27.015625 C 3.035156 24.753906 3.035156 24.753906 2.574219 23.355469 C 2.550781 22.890625 2.539062 22.425781 2.539062 21.957031 C 2.539062 21.824219 2.539062 21.683594 2.539062 21.535156 C 2.527344 21.070312 2.519531 20.605469 2.519531 20.136719 C 2.519531 19.898438 2.519531 19.898438 2.519531 19.660156 C 2.519531 18.800781 2.511719 17.949219 2.5 17.101562 C 2.5 16.40625 2.5 15.707031 2.5 15.007812 C 2.488281 14.160156 2.484375 13.316406 2.484375 12.46875 C 2.484375 12.148438 2.476562 11.832031 2.464844 11.511719 C 2.425781 8.441406 2.425781 8.441406 3.238281 7.429688 C 3.585938 7.082031 3.917969 6.785156 4.320312 6.527344 C 4.480469 6.429688 4.640625 6.328125 4.800781 6.214844 C 4.972656 6.105469 5.148438 5.996094 5.332031 5.886719 C 5.515625 5.773438 5.707031 5.660156 5.902344 5.535156 C 6.515625 5.15625 7.136719 4.777344 7.761719 4.394531 C 7.980469 4.261719 8.207031 4.125 8.441406 3.992188 C 8.785156 3.78125 9.128906 3.574219 9.472656 3.367188 C 10.796875 2.570312 12.121094 1.765625 13.445312 0.957031 C 13.601562 0.859375 13.769531 0.761719 13.941406 0.660156 C 14.074219 0.578125 14.214844 0.484375 14.363281 0.386719 C 15.265625 -0.148438 16.074219 -0.164062 17.101562 0 Z M 17.101562 0 "/>
<path style=" stroke:none;fill-rule:nonzero;fill:rgb(76.47059%,1.176471%,93.725491%);fill-opacity:1;" d="M 10.738281 13.40625 C 10.9375 13.40625 11.140625 13.40625 11.347656 13.40625 C 11.566406 13.40625 11.789062 13.40625 12.007812 13.40625 C 12.230469 13.40625 12.457031 13.40625 12.691406 13.40625 C 13.402344 13.40625 14.117188 13.40625 14.839844 13.40625 C 15.320312 13.40625 15.804688 13.414062 16.292969 13.425781 C 17.484375 13.425781 18.671875 13.425781 19.863281 13.425781 C 19.734375 14.015625 19.53125 14.4375 19.199219 14.933594 C 19.125 15.066406 19.046875 15.203125 18.960938 15.339844 C 18.851562 15.484375 18.851562 15.484375 18.757812 15.632812 C 18.925781 15.503906 18.925781 15.503906 19.109375 15.355469 C 19.496094 15.082031 19.496094 15.082031 19.863281 15.082031 C 19.863281 14.957031 19.863281 14.835938 19.863281 14.710938 C 20.359375 14.457031 20.746094 14.511719 21.316406 14.511719 C 21.523438 14.511719 21.738281 14.511719 21.957031 14.511719 C 22.179688 14.511719 22.40625 14.511719 22.640625 14.511719 C 22.871094 14.511719 23.105469 14.515625 23.339844 14.527344 C 23.890625 14.527344 24.449219 14.527344 25.011719 14.527344 C 25.023438 15.582031 25.035156 16.632812 25.046875 17.671875 C 25.046875 18.027344 25.054688 18.390625 25.066406 18.757812 C 25.078125 19.273438 25.085938 19.78125 25.085938 20.285156 C 25.085938 20.445312 25.089844 20.609375 25.101562 20.78125 C 25.101562 22.363281 24.421875 23.265625 23.375 24.421875 C 23.214844 24.59375 23.054688 24.765625 22.898438 24.9375 C 22.179688 25.617188 21.535156 25.800781 20.5625 25.785156 C 20.285156 25.785156 20.285156 25.785156 20.007812 25.785156 C 19.8125 25.785156 19.617188 25.785156 19.421875 25.785156 C 19.210938 25.785156 19.003906 25.785156 18.796875 25.785156 C 18.15625 25.785156 17.515625 25.777344 16.863281 25.765625 C 16.421875 25.765625 15.980469 25.765625 15.539062 25.765625 C 14.472656 25.765625 13.402344 25.757812 12.320312 25.746094 C 12.542969 25.101562 12.800781 24.625 13.242188 24.109375 C 13.339844 23.976562 13.445312 23.847656 13.554688 23.722656 C 13.664062 23.589844 13.773438 23.453125 13.886719 23.320312 C 13.996094 23.183594 14.105469 23.050781 14.214844 22.914062 C 15.355469 21.535156 15.355469 21.535156 15.90625 21.460938 C 16.09375 21.460938 16.277344 21.460938 16.460938 21.460938 C 16.667969 21.449219 16.875 21.445312 17.085938 21.445312 C 17.292969 21.429688 17.507812 21.425781 17.730469 21.425781 C 18.144531 21.414062 18.5625 21.402344 18.980469 21.386719 C 19.164062 21.386719 19.351562 21.386719 19.550781 21.386719 C 20.101562 21.351562 20.101562 21.351562 20.78125 20.964844 C 20.78125 20.046875 20.78125 19.144531 20.78125 18.207031 C 17.800781 18.207031 14.839844 18.207031 11.769531 18.207031 C 11.769531 19.550781 11.769531 20.875 11.769531 22.253906 C 11.070312 23.265625 10.59375 23.851562 9.746094 24.644531 C 9.601562 24.851562 9.453125 25.054688 9.304688 25.25 C 8.828125 25.746094 8.828125 25.746094 8.460938 25.800781 C 7.90625 25.765625 7.90625 25.765625 7.355469 25.746094 C 7.34375 24.324219 7.332031 22.902344 7.320312 21.480469 C 7.320312 21.003906 7.3125 20.523438 7.300781 20.046875 C 7.289062 19.347656 7.28125 18.648438 7.28125 17.949219 C 7.28125 17.742188 7.277344 17.527344 7.265625 17.304688 C 7.265625 15.90625 7.410156 15.226562 8.386719 14.234375 C 9.195312 13.574219 9.710938 13.40625 10.738281 13.40625 Z M 10.738281 13.40625 "/>
<path style=" stroke:none;fill-rule:nonzero;fill:rgb(36.470589%,1.568628%,97.254902%);fill-opacity:1;" d="M 20.597656 14.527344 C 22.050781 14.527344 23.503906 14.527344 25.011719 14.527344 C 25.023438 15.582031 25.035156 16.632812 25.046875 17.671875 C 25.046875 18.027344 25.054688 18.390625 25.066406 18.757812 C 25.078125 19.273438 25.085938 19.78125 25.085938 20.285156 C 25.085938 20.445312 25.089844 20.609375 25.101562 20.78125 C 25.101562 22.363281 24.421875 23.265625 23.375 24.421875 C 23.136719 24.679688 23.136719 24.679688 22.898438 24.9375 C 22.179688 25.617188 21.535156 25.800781 20.5625 25.785156 C 20.285156 25.785156 20.285156 25.785156 20.007812 25.785156 C 19.8125 25.785156 19.617188 25.785156 19.421875 25.785156 C 19.210938 25.785156 19.003906 25.785156 18.796875 25.785156 C 18.15625 25.785156 17.515625 25.777344 16.863281 25.765625 C 16.421875 25.765625 15.980469 25.765625 15.539062 25.765625 C 14.472656 25.765625 13.402344 25.757812 12.320312 25.746094 C 12.542969 25.101562 12.800781 24.625 13.242188 24.109375 C 13.386719 23.90625 13.386719 23.90625 13.554688 23.722656 C 13.664062 23.589844 13.773438 23.453125 13.886719 23.320312 C 13.996094 23.183594 14.105469 23.050781 14.214844 22.914062 C 15.355469 21.535156 15.355469 21.535156 15.90625 21.460938 C 16.09375 21.460938 16.277344 21.460938 16.460938 21.460938 C 16.667969 21.449219 16.875 21.445312 17.085938 21.445312 C 17.292969 21.429688 17.507812 21.425781 17.730469 21.425781 C 18.144531 21.414062 18.5625 21.402344 18.980469 21.386719 C 19.164062 21.386719 19.351562 21.386719 19.550781 21.386719 C 20.101562 21.351562 20.101562 21.351562 20.78125 20.964844 C 20.691406 17.785156 20.691406 17.785156 20.597656 14.527344 Z M 20.597656 14.527344 "/>
<path style=" stroke:none;fill-rule:nonzero;fill:rgb(98.431373%,4.705882%,63.921571%);fill-opacity:1;" d="M 12.007812 6.214844 C 12.144531 6.214844 12.285156 6.214844 12.433594 6.214844 C 12.875 6.214844 13.320312 6.214844 13.773438 6.214844 C 14.09375 6.214844 14.40625 6.214844 14.710938 6.214844 C 15.535156 6.214844 16.355469 6.222656 17.175781 6.234375 C 18.023438 6.234375 18.863281 6.234375 19.695312 6.234375 C 21.351562 6.234375 23 6.242188 24.644531 6.253906 C 24.472656 6.484375 24.300781 6.71875 24.128906 6.953125 C 24.03125 7.074219 23.933594 7.203125 23.835938 7.339844 C 23.738281 7.460938 23.636719 7.589844 23.539062 7.722656 C 23.410156 7.90625 23.410156 7.90625 23.265625 8.09375 C 23.019531 8.410156 22.773438 8.730469 22.527344 9.046875 C 22.441406 9.160156 22.355469 9.273438 22.269531 9.398438 C 22.199219 9.496094 22.117188 9.601562 22.03125 9.710938 C 21.957031 9.808594 21.886719 9.90625 21.8125 10.003906 C 21.203125 10.628906 20.632812 10.996094 19.769531 11.125 C 19.539062 11.125 19.296875 11.125 19.054688 11.125 C 18.851562 11.125 18.851562 11.125 18.667969 11.125 C 18.238281 11.113281 17.800781 11.109375 17.359375 11.109375 C 17.066406 11.109375 16.773438 11.109375 16.476562 11.109375 C 15.695312 11.097656 14.902344 11.089844 14.105469 11.089844 C 13.308594 11.078125 12.511719 11.070312 11.714844 11.070312 C 10.132812 11.058594 8.558594 11.046875 6.988281 11.035156 C 7.152344 10.261719 7.539062 9.746094 8.035156 9.140625 C 8.121094 9.03125 8.207031 8.917969 8.292969 8.808594 C 10.355469 6.199219 10.355469 6.199219 12.007812 6.214844 Z M 12.007812 6.214844 "/>
<path style=" stroke:none;fill-rule:nonzero;fill:rgb(69.411767%,52.156866%,88.235295%);fill-opacity:1;" d="M 20.597656 14.527344 C 20.984375 15.6875 20.78125 16.976562 20.78125 18.207031 C 17.875 18.207031 14.953125 18.207031 11.953125 18.207031 C 11.953125 18.144531 11.953125 18.085938 11.953125 18.023438 C 12.078125 18.023438 12.199219 18.027344 12.320312 18.042969 C 14.859375 18.242188 14.859375 18.242188 17.101562 17.34375 C 17.601562 16.828125 18.003906 16.238281 18.390625 15.632812 C 18.511719 15.507812 18.636719 15.386719 18.757812 15.265625 C 18.757812 15.386719 18.757812 15.507812 18.757812 15.632812 C 18.867188 15.546875 18.984375 15.453125 19.109375 15.355469 C 19.496094 15.082031 19.496094 15.082031 19.863281 15.082031 C 19.863281 14.957031 19.863281 14.835938 19.863281 14.710938 C 20.230469 14.527344 20.230469 14.527344 20.597656 14.527344 Z M 20.597656 14.527344 "/>
<path style=" stroke:none;fill-rule:nonzero;fill:rgb(56.470591%,30.588236%,90.588236%);fill-opacity:1;" d="M 20.597656 14.527344 C 20.835938 15.226562 20.800781 15.871094 20.800781 16.589844 C 20.800781 16.722656 20.792969 16.863281 20.78125 17.011719 C 20.78125 17.34375 20.78125 17.679688 20.78125 18.023438 C 20.175781 18.023438 19.566406 18.023438 18.941406 18.023438 C 18.796875 17.289062 18.738281 16.734375 18.941406 16 C 19.066406 16.121094 19.1875 16.246094 19.308594 16.367188 C 19.347656 16.246094 19.382812 16.128906 19.421875 16.019531 C 19.46875 15.859375 19.519531 15.707031 19.566406 15.558594 C 19.617188 15.398438 19.660156 15.246094 19.695312 15.097656 C 19.917969 14.601562 20.0625 14.527344 20.597656 14.527344 Z M 20.597656 14.527344 "/>
<path style=" stroke:none;fill-rule:nonzero;fill:rgb(44.705883%,16.078432%,84.313726%);fill-opacity:1;" d="M 20.964844 18.023438 C 21.027344 18.023438 21.089844 18.023438 21.148438 18.023438 C 21.175781 18.5 21.191406 18.980469 21.203125 19.457031 C 21.203125 19.660156 21.203125 19.660156 21.222656 19.863281 C 21.222656 20.265625 21.222656 20.265625 21.148438 20.964844 C 20.78125 21.296875 20.78125 21.296875 20.414062 21.515625 C 20.320312 21.792969 20.320312 21.792969 20.230469 22.070312 C 20.105469 22.007812 19.984375 21.945312 19.863281 21.886719 C 19.542969 21.871094 19.222656 21.867188 18.90625 21.867188 C 18.613281 21.867188 18.613281 21.867188 18.316406 21.867188 C 18.121094 21.867188 17.925781 21.867188 17.730469 21.867188 C 17.53125 21.867188 17.332031 21.871094 17.121094 21.886719 C 16.621094 21.886719 16.121094 21.886719 15.632812 21.886719 C 15.570312 22.070312 15.507812 22.253906 15.449219 22.4375 C 15.324219 22.4375 15.203125 22.4375 15.082031 22.4375 C 15.019531 22.621094 14.957031 22.804688 14.898438 22.988281 C 14.773438 22.988281 14.652344 22.988281 14.527344 22.988281 C 14.480469 23.097656 14.425781 23.210938 14.363281 23.320312 C 14.160156 23.722656 14.160156 23.722656 13.792969 24.277344 C 13.609375 24.214844 13.425781 24.152344 13.242188 24.09375 C 13.574219 23.699219 13.902344 23.308594 14.234375 22.914062 C 14.332031 22.792969 14.429688 22.675781 14.527344 22.566406 C 15.246094 21.71875 15.246094 21.71875 15.449219 21.515625 C 15.78125 21.492188 16.109375 21.480469 16.441406 21.480469 C 16.648438 21.46875 16.859375 21.460938 17.066406 21.460938 C 17.496094 21.449219 17.925781 21.4375 18.355469 21.425781 C 18.5625 21.414062 18.769531 21.40625 18.980469 21.40625 C 19.164062 21.394531 19.351562 21.386719 19.550781 21.386719 C 20.046875 21.332031 20.359375 21.222656 20.78125 20.964844 C 20.78125 20.769531 20.78125 20.574219 20.78125 20.378906 C 20.78125 20.121094 20.777344 19.863281 20.761719 19.605469 C 20.761719 19.46875 20.761719 19.335938 20.761719 19.199219 C 20.761719 18.867188 20.769531 18.539062 20.78125 18.207031 C 20.84375 18.144531 20.902344 18.085938 20.964844 18.023438 Z M 20.964844 18.023438 "/>
<path style=" stroke:none;fill-rule:nonzero;fill:rgb(36.078432%,9.019608%,81.176472%);fill-opacity:1;" d="M 13.058594 24.277344 C 13.261719 24.625 13.261719 24.625 13.425781 25.011719 C 13.363281 25.132812 13.300781 25.257812 13.242188 25.378906 C 13.117188 25.316406 12.996094 25.257812 12.875 25.195312 C 12.875 25.316406 12.875 25.441406 12.875 25.5625 C 13.941406 25.539062 15.007812 25.515625 16.074219 25.488281 C 16.441406 25.488281 16.808594 25.484375 17.175781 25.472656 C 17.703125 25.460938 18.226562 25.445312 18.738281 25.433594 C 18.898438 25.433594 19.066406 25.433594 19.238281 25.433594 C 20.25 25.398438 21.242188 25.324219 22.253906 25.195312 C 22.160156 24.828125 22.160156 24.828125 22.070312 24.460938 C 22.4375 24.460938 22.804688 24.460938 23.171875 24.460938 C 22.675781 25.160156 22.328125 25.488281 21.515625 25.746094 C 21.058594 25.785156 21.058594 25.785156 20.5625 25.785156 C 20.285156 25.785156 20.285156 25.785156 20.007812 25.785156 C 19.8125 25.785156 19.617188 25.785156 19.421875 25.785156 C 19.210938 25.785156 19.003906 25.785156 18.796875 25.785156 C 18.15625 25.785156 17.515625 25.777344 16.863281 25.765625 C 16.421875 25.765625 15.980469 25.765625 15.539062 25.765625 C 14.472656 25.765625 13.402344 25.757812 12.320312 25.746094 C 12.523438 25.195312 12.726562 24.773438 13.058594 24.277344 Z M 13.058594 24.277344 "/>
<path style=" stroke:none;fill-rule:nonzero;fill:rgb(36.078432%,6.27451%,75.686276%);fill-opacity:1;" d="M 20.964844 14.527344 C 22.308594 14.527344 23.632812 14.527344 25.011719 14.527344 C 25.023438 15.582031 25.035156 16.632812 25.046875 17.671875 C 25.046875 18.027344 25.054688 18.390625 25.066406 18.757812 C 25.078125 19.273438 25.085938 19.78125 25.085938 20.285156 C 25.085938 20.445312 25.089844 20.609375 25.101562 20.78125 C 25.101562 22.34375 24.386719 23.320312 23.355469 24.460938 C 23.296875 24.460938 23.234375 24.460938 23.171875 24.460938 C 23.171875 24.152344 23.171875 23.847656 23.171875 23.539062 C 23.480469 23.417969 23.785156 23.296875 24.09375 23.171875 C 24.09375 22.867188 24.09375 22.558594 24.09375 22.253906 C 24.277344 22.253906 24.460938 22.253906 24.644531 22.253906 C 24.699219 19.769531 24.773438 17.269531 24.828125 14.710938 C 23.558594 14.710938 22.269531 14.710938 20.964844 14.710938 C 20.964844 14.652344 20.964844 14.589844 20.964844 14.527344 Z M 20.964844 14.527344 "/>
<path style=" stroke:none;fill-rule:nonzero;fill:rgb(38.431373%,5.098039%,89.411765%);fill-opacity:1;" d="M 20.597656 14.527344 C 21.996094 14.582031 23.394531 14.65625 24.828125 14.710938 C 24.828125 17.011719 24.828125 19.328125 24.828125 21.699219 C 24.765625 21.699219 24.703125 21.699219 24.644531 21.699219 C 24.644531 19.457031 24.644531 17.214844 24.644531 14.898438 C 23.097656 14.988281 23.097656 14.988281 21.515625 15.082031 C 21.460938 15.558594 21.386719 16.054688 21.332031 16.550781 C 21.148438 16.550781 20.964844 16.550781 20.78125 16.550781 C 20.726562 15.890625 20.652344 15.210938 20.597656 14.527344 Z M 20.597656 14.527344 "/>
<path style=" stroke:none;fill-rule:nonzero;fill:rgb(34.117648%,4.705882%,93.725491%);fill-opacity:1;" d="M 14.527344 22.988281 C 14.652344 23.050781 14.773438 23.109375 14.898438 23.171875 C 14.695312 23.796875 14.4375 24.019531 13.976562 24.460938 C 13.914062 24.582031 13.855469 24.703125 13.792969 24.828125 C 13.914062 24.828125 14.039062 24.828125 14.160156 24.828125 C 14.222656 24.949219 14.285156 25.074219 14.34375 25.195312 C 14.804688 25.214844 15.210938 25.214844 15.667969 25.085938 C 16 25.011719 16 25.011719 16.367188 25.195312 C 16.894531 25.230469 17.421875 25.269531 17.949219 25.304688 C 18.097656 25.304688 18.25 25.3125 18.410156 25.324219 C 18.765625 25.347656 19.125 25.367188 19.496094 25.378906 C 19.496094 25.441406 19.496094 25.5 19.496094 25.5625 C 17.304688 25.5625 15.117188 25.5625 12.875 25.5625 C 12.875 25.441406 12.875 25.316406 12.875 25.195312 C 12.996094 25.132812 13.117188 25.074219 13.242188 25.011719 C 13.242188 24.765625 13.242188 24.519531 13.242188 24.277344 C 13.425781 24.277344 13.609375 24.277344 13.792969 24.277344 C 13.84375 24.164062 13.898438 24.054688 13.957031 23.945312 C 14.160156 23.539062 14.160156 23.539062 14.527344 22.988281 Z M 14.527344 22.988281 "/>
<path style=" stroke:none;fill-rule:nonzero;fill:rgb(81.960785%,45.490196%,96.078432%);fill-opacity:1;" d="M 18.574219 15.265625 C 18.699219 15.449219 18.820312 15.632812 18.941406 15.816406 C 18.867188 15.890625 18.789062 15.964844 18.703125 16.035156 C 18.371094 16.367188 18.371094 16.367188 18.132812 16.808594 C 17.691406 17.507812 17.34375 17.949219 16.550781 18.207031 C 16.195312 18.21875 15.839844 18.226562 15.484375 18.226562 C 15.289062 18.226562 15.082031 18.226562 14.859375 18.226562 C 14.652344 18.226562 14.4375 18.226562 14.214844 18.226562 C 14.007812 18.226562 13.785156 18.21875 13.554688 18.207031 C 13.027344 18.207031 12.492188 18.207031 11.953125 18.207031 C 11.953125 18.144531 11.953125 18.085938 11.953125 18.023438 C 12.136719 18.023438 12.136719 18.023438 12.320312 18.042969 C 14.859375 18.242188 14.859375 18.242188 17.101562 17.34375 C 17.710938 16.734375 18.1875 16.035156 18.574219 15.265625 Z M 18.574219 15.265625 "/>
<path style=" stroke:none;fill-rule:nonzero;fill:rgb(60.784316%,40.784314%,84.705883%);fill-opacity:1;" d="M 20.230469 14.527344 C 20.351562 14.589844 20.476562 14.652344 20.597656 14.710938 C 20.511719 14.796875 20.425781 14.890625 20.339844 14.988281 C 20.046875 15.449219 20.007812 15.652344 19.953125 16.183594 C 19.898438 16.828125 19.769531 17.175781 19.308594 17.65625 C 19.679688 17.714844 20.046875 17.777344 20.414062 17.839844 C 20.414062 17.898438 20.414062 17.960938 20.414062 18.023438 C 19.9375 18.023438 19.4375 18.023438 18.941406 18.023438 C 18.796875 17.289062 18.738281 16.734375 18.941406 16 C 19.066406 16.121094 19.1875 16.246094 19.308594 16.367188 C 19.347656 16.246094 19.382812 16.128906 19.421875 16.019531 C 19.46875 15.859375 19.519531 15.707031 19.566406 15.558594 C 19.617188 15.398438 19.660156 15.246094 19.695312 15.097656 C 19.863281 14.710938 19.863281 14.710938 20.230469 14.527344 Z M 20.230469 14.527344 "/>
<path style=" stroke:none;fill-rule:nonzero;fill:rgb(37.254903%,12.54902%,78.823531%);fill-opacity:1;" d="M 15.90625 21.5 C 16.183594 21.5 16.183594 21.5 16.476562 21.5 C 16.660156 21.511719 16.847656 21.515625 17.03125 21.515625 C 17.25 21.515625 17.25 21.515625 17.472656 21.515625 C 17.472656 21.578125 17.472656 21.640625 17.472656 21.699219 C 16.863281 21.757812 16.257812 21.828125 15.632812 21.886719 C 15.570312 22.070312 15.507812 22.253906 15.449219 22.4375 C 15.324219 22.4375 15.203125 22.4375 15.082031 22.4375 C 15.019531 22.621094 14.957031 22.804688 14.898438 22.988281 C 14.773438 22.988281 14.652344 22.988281 14.527344 22.988281 C 14.480469 23.097656 14.425781 23.210938 14.363281 23.320312 C 14.160156 23.722656 14.160156 23.722656 13.792969 24.277344 C 13.609375 24.214844 13.425781 24.152344 13.242188 24.09375 C 13.574219 23.699219 13.902344 23.308594 14.234375 22.914062 C 14.332031 22.792969 14.429688 22.675781 14.527344 22.566406 C 15.410156 21.515625 15.410156 21.515625 15.90625 21.5 Z M 15.90625 21.5 "/>
<path style=" stroke:none;fill-rule:nonzero;fill:rgb(40.784314%,9.411765%,82.352942%);fill-opacity:1;" d="M 24.644531 21.699219 C 24.703125 21.699219 24.765625 21.699219 24.828125 21.699219 C 24.902344 22.328125 24.847656 22.582031 24.515625 23.117188 C 24.3125 23.355469 24.3125 23.355469 24.109375 23.59375 C 23.976562 23.753906 23.835938 23.921875 23.6875 24.09375 C 23.578125 24.214844 23.464844 24.335938 23.355469 24.460938 C 23.296875 24.460938 23.234375 24.460938 23.171875 24.460938 C 23.171875 24.152344 23.171875 23.847656 23.171875 23.539062 C 23.480469 23.417969 23.785156 23.296875 24.09375 23.171875 C 24.09375 22.867188 24.09375 22.558594 24.09375 22.253906 C 24.277344 22.253906 24.460938 22.253906 24.644531 22.253906 C 24.644531 22.070312 24.644531 21.886719 24.644531 21.699219 Z M 24.644531 21.699219 "/>
<path style=" stroke:none;fill-rule:nonzero;fill:rgb(41.176471%,9.803922%,85.09804%);fill-opacity:1;" d="M 22.070312 24.460938 C 22.4375 24.460938 22.804688 24.460938 23.171875 24.460938 C 22.640625 25.230469 22.253906 25.527344 21.332031 25.746094 C 21.332031 25.5625 21.332031 25.378906 21.332031 25.195312 C 21.640625 25.195312 21.945312 25.195312 22.253906 25.195312 C 22.191406 24.949219 22.128906 24.703125 22.070312 24.460938 Z M 22.070312 24.460938 "/>
<path style=" stroke:none;fill-rule:nonzero;fill:rgb(37.64706%,4.313726%,94.117647%);fill-opacity:1;" d="M 20.78125 16.550781 C 21.148438 16.550781 21.515625 16.550781 21.886719 16.550781 C 21.761719 16.796875 21.640625 17.042969 21.515625 17.289062 C 21.394531 17.226562 21.273438 17.164062 21.148438 17.101562 C 21.089844 17.472656 21.027344 17.839844 20.964844 18.207031 C 20.902344 18.207031 20.84375 18.207031 20.78125 18.207031 C 20.78125 17.65625 20.78125 17.121094 20.78125 16.550781 Z M 20.78125 16.550781 "/>
</g>
</svg>
