<?xml version="1.0" encoding="UTF-8"?>
<svg xmlns="http://www.w3.org/2000/svg" xmlns:xlink="http://www.w3.org/1999/xlink" width="24px" height="24px" viewBox="0 0 24 24" version="1.1">
<g id="surface1">
<path style=" stroke:none;fill-rule:nonzero;fill:rgb(98.823529%,80.784315%,96.862745%);fill-opacity:1;" d="M 12.828125 0 C 13.40625 0.25 13.929688 0.578125 14.46875 0.925781 C 14.78125 1.117188 15.097656 1.308594 15.421875 1.503906 C 15.898438 1.808594 16.382812 2.109375 16.867188 2.414062 C 17.410156 2.753906 17.960938 3.085938 18.511719 3.40625 C 18.648438 3.5 18.789062 3.585938 18.9375 3.667969 C 19.214844 3.835938 19.488281 4 19.765625 4.164062 C 21.738281 5.351562 21.738281 5.351562 22.070312 6.207031 C 22.097656 6.578125 22.109375 6.953125 22.109375 7.324219 C 22.109375 7.433594 22.109375 7.542969 22.109375 7.65625 C 22.109375 8.03125 22.109375 8.40625 22.109375 8.773438 C 22.109375 9.03125 22.109375 9.289062 22.109375 9.546875 C 22.109375 10.085938 22.109375 10.625 22.109375 11.160156 C 22.109375 11.847656 22.113281 12.539062 22.125 13.226562 C 22.125 13.761719 22.125 14.292969 22.125 14.828125 C 22.125 15.085938 22.125 15.335938 22.125 15.585938 C 22.125 15.945312 22.125 16.304688 22.125 16.660156 C 22.125 16.761719 22.125 16.867188 22.125 16.980469 C 22.109375 17.722656 21.957031 18.179688 21.421875 18.71875 C 20.675781 19.296875 19.875 19.777344 19.046875 20.261719 C 18.21875 20.730469 17.40625 21.226562 16.605469 21.738281 C 15.738281 22.277344 14.855469 22.8125 13.984375 23.351562 C 13.902344 23.398438 13.816406 23.449219 13.722656 23.503906 C 12.953125 23.972656 12.34375 24.109375 11.449219 24 C 10.484375 23.613281 9.601562 23.046875 8.730469 22.496094 C 8.484375 22.332031 8.230469 22.171875 7.972656 22.015625 C 7.84375 21.929688 7.710938 21.847656 7.574219 21.765625 C 7.160156 21.507812 6.746094 21.253906 6.332031 21.007812 C 6.195312 20.921875 6.050781 20.835938 5.902344 20.746094 C 5.636719 20.589844 5.371094 20.425781 5.101562 20.261719 C 2.277344 18.566406 2.277344 18.566406 1.929688 17.515625 C 1.914062 17.167969 1.902344 16.820312 1.902344 16.46875 C 1.902344 16.367188 1.902344 16.261719 1.902344 16.152344 C 1.894531 15.800781 1.890625 15.453125 1.890625 15.101562 C 1.890625 14.921875 1.890625 14.921875 1.890625 14.746094 C 1.890625 14.101562 1.886719 13.460938 1.875 12.828125 C 1.875 12.304688 1.875 11.78125 1.875 11.253906 C 1.867188 10.621094 1.863281 9.988281 1.863281 9.351562 C 1.863281 9.113281 1.859375 8.875 1.847656 8.632812 C 1.820312 6.332031 1.820312 6.332031 2.425781 5.570312 C 2.6875 5.308594 2.9375 5.089844 3.242188 4.894531 C 3.359375 4.824219 3.480469 4.746094 3.601562 4.660156 C 3.730469 4.578125 3.863281 4.496094 4 4.414062 C 4.136719 4.332031 4.28125 4.242188 4.425781 4.152344 C 4.886719 3.867188 5.351562 3.582031 5.820312 3.296875 C 5.984375 3.195312 6.15625 3.09375 6.332031 2.992188 C 6.589844 2.835938 6.847656 2.679688 7.105469 2.523438 C 8.097656 1.925781 9.089844 1.324219 10.082031 0.71875 C 10.203125 0.644531 10.328125 0.570312 10.457031 0.496094 C 10.554688 0.433594 10.660156 0.363281 10.773438 0.289062 C 11.449219 -0.109375 12.054688 -0.125 12.828125 0 Z M 12.828125 0 "/>
<path style=" stroke:none;fill-rule:nonzero;fill:rgb(76.47059%,1.176471%,93.725491%);fill-opacity:1;" d="M 8.054688 10.054688 C 8.203125 10.054688 8.355469 10.054688 8.511719 10.054688 C 8.675781 10.054688 8.839844 10.054688 9.007812 10.054688 C 9.171875 10.054688 9.34375 10.054688 9.515625 10.054688 C 10.050781 10.054688 10.589844 10.054688 11.132812 10.054688 C 11.488281 10.054688 11.851562 10.058594 12.21875 10.070312 C 13.113281 10.070312 14.003906 10.070312 14.898438 10.070312 C 14.800781 10.511719 14.648438 10.828125 14.398438 11.199219 C 14.34375 11.300781 14.285156 11.402344 14.21875 11.503906 C 14.136719 11.613281 14.136719 11.613281 14.070312 11.722656 C 14.191406 11.628906 14.191406 11.628906 14.332031 11.515625 C 14.621094 11.308594 14.621094 11.308594 14.898438 11.308594 C 14.898438 11.21875 14.898438 11.125 14.898438 11.035156 C 15.269531 10.839844 15.558594 10.882812 15.988281 10.882812 C 16.140625 10.882812 16.304688 10.882812 16.46875 10.882812 C 16.632812 10.882812 16.804688 10.882812 16.980469 10.882812 C 17.152344 10.882812 17.328125 10.886719 17.503906 10.894531 C 17.917969 10.894531 18.335938 10.894531 18.757812 10.894531 C 18.765625 11.6875 18.777344 12.472656 18.785156 13.253906 C 18.785156 13.523438 18.789062 13.792969 18.800781 14.070312 C 18.808594 14.453125 18.8125 14.835938 18.8125 15.214844 C 18.8125 15.332031 18.816406 15.457031 18.828125 15.585938 C 18.828125 16.773438 18.316406 17.449219 17.53125 18.316406 C 17.410156 18.445312 17.292969 18.574219 17.171875 18.703125 C 16.632812 19.214844 16.152344 19.351562 15.421875 19.339844 C 15.214844 19.339844 15.214844 19.339844 15.007812 19.339844 C 14.859375 19.339844 14.710938 19.339844 14.566406 19.339844 C 14.410156 19.339844 14.253906 19.339844 14.097656 19.339844 C 13.617188 19.339844 13.136719 19.332031 12.648438 19.324219 C 12.316406 19.324219 11.984375 19.324219 11.65625 19.324219 C 10.855469 19.324219 10.050781 19.320312 9.242188 19.308594 C 9.40625 18.828125 9.601562 18.46875 9.929688 18.082031 C 10.003906 17.980469 10.082031 17.886719 10.164062 17.792969 C 10.25 17.691406 10.332031 17.589844 10.414062 17.488281 C 10.496094 17.386719 10.578125 17.289062 10.660156 17.1875 C 11.515625 16.152344 11.515625 16.152344 11.929688 16.097656 C 12.070312 16.097656 12.207031 16.097656 12.34375 16.097656 C 12.5 16.085938 12.65625 16.082031 12.8125 16.082031 C 12.96875 16.074219 13.132812 16.070312 13.296875 16.070312 C 13.609375 16.058594 13.921875 16.050781 14.234375 16.042969 C 14.371094 16.042969 14.515625 16.042969 14.664062 16.042969 C 15.078125 16.015625 15.078125 16.015625 15.585938 15.722656 C 15.585938 15.035156 15.585938 14.359375 15.585938 13.65625 C 13.351562 13.65625 11.132812 13.65625 8.828125 13.65625 C 8.828125 14.664062 8.828125 15.65625 8.828125 16.691406 C 8.304688 17.449219 7.945312 17.890625 7.308594 18.484375 C 7.199219 18.640625 7.089844 18.789062 6.980469 18.9375 C 6.621094 19.308594 6.621094 19.308594 6.34375 19.351562 C 5.929688 19.324219 5.929688 19.324219 5.515625 19.308594 C 5.507812 18.242188 5.5 17.175781 5.488281 16.109375 C 5.488281 15.75 5.484375 15.394531 5.476562 15.035156 C 5.46875 14.511719 5.460938 13.984375 5.460938 13.460938 C 5.460938 13.304688 5.457031 13.144531 5.449219 12.980469 C 5.449219 11.929688 5.558594 11.421875 6.289062 10.675781 C 6.898438 10.179688 7.28125 10.054688 8.054688 10.054688 Z M 8.054688 10.054688 "/>
<path style=" stroke:none;fill-rule:nonzero;fill:rgb(36.470589%,1.568628%,97.254902%);fill-opacity:1;" d="M 15.449219 10.894531 C 16.539062 10.894531 17.628906 10.894531 18.757812 10.894531 C 18.765625 11.6875 18.777344 12.472656 18.785156 13.253906 C 18.785156 13.523438 18.789062 13.792969 18.800781 14.070312 C 18.808594 14.453125 18.8125 14.835938 18.8125 15.214844 C 18.8125 15.332031 18.816406 15.457031 18.828125 15.585938 C 18.828125 16.773438 18.316406 17.449219 17.53125 18.316406 C 17.351562 18.511719 17.351562 18.511719 17.171875 18.703125 C 16.632812 19.214844 16.152344 19.351562 15.421875 19.339844 C 15.214844 19.339844 15.214844 19.339844 15.007812 19.339844 C 14.859375 19.339844 14.710938 19.339844 14.566406 19.339844 C 14.410156 19.339844 14.253906 19.339844 14.097656 19.339844 C 13.617188 19.339844 13.136719 19.332031 12.648438 19.324219 C 12.316406 19.324219 11.984375 19.324219 11.65625 19.324219 C 10.855469 19.324219 10.050781 19.320312 9.242188 19.308594 C 9.40625 18.828125 9.601562 18.46875 9.929688 18.082031 C 10.042969 17.929688 10.042969 17.929688 10.164062 17.792969 C 10.25 17.691406 10.332031 17.589844 10.414062 17.488281 C 10.496094 17.386719 10.578125 17.289062 10.660156 17.1875 C 11.515625 16.152344 11.515625 16.152344 11.929688 16.097656 C 12.070312 16.097656 12.207031 16.097656 12.34375 16.097656 C 12.5 16.085938 12.65625 16.082031 12.8125 16.082031 C 12.96875 16.074219 13.132812 16.070312 13.296875 16.070312 C 13.609375 16.058594 13.921875 16.050781 14.234375 16.042969 C 14.371094 16.042969 14.515625 16.042969 14.664062 16.042969 C 15.078125 16.015625 15.078125 16.015625 15.585938 15.722656 C 15.515625 13.339844 15.515625 13.339844 15.449219 10.894531 Z M 15.449219 10.894531 "/>
<path style=" stroke:none;fill-rule:nonzero;fill:rgb(98.431373%,4.705882%,63.921571%);fill-opacity:1;" d="M 9.007812 4.660156 C 9.109375 4.660156 9.214844 4.660156 9.324219 4.660156 C 9.65625 4.660156 9.992188 4.660156 10.332031 4.660156 C 10.570312 4.660156 10.804688 4.660156 11.035156 4.660156 C 11.652344 4.660156 12.265625 4.667969 12.882812 4.675781 C 13.515625 4.675781 14.148438 4.675781 14.773438 4.675781 C 16.015625 4.675781 17.25 4.679688 18.484375 4.691406 C 18.355469 4.863281 18.226562 5.039062 18.097656 5.214844 C 18.023438 5.304688 17.949219 5.402344 17.875 5.503906 C 17.800781 5.59375 17.730469 5.691406 17.65625 5.792969 C 17.558594 5.929688 17.558594 5.929688 17.449219 6.070312 C 17.265625 6.308594 17.082031 6.546875 16.894531 6.785156 C 16.832031 6.867188 16.769531 6.957031 16.703125 7.046875 C 16.648438 7.121094 16.589844 7.199219 16.523438 7.28125 C 16.46875 7.355469 16.414062 7.429688 16.359375 7.503906 C 15.902344 7.972656 15.476562 8.25 14.828125 8.34375 C 14.652344 8.34375 14.472656 8.34375 14.289062 8.34375 C 14.136719 8.34375 14.136719 8.34375 14 8.34375 C 13.679688 8.335938 13.351562 8.332031 13.019531 8.332031 C 12.800781 8.332031 12.578125 8.332031 12.359375 8.332031 C 11.769531 8.320312 11.175781 8.316406 10.578125 8.316406 C 9.980469 8.308594 9.382812 8.304688 8.785156 8.304688 C 7.601562 8.292969 6.417969 8.285156 5.242188 8.277344 C 5.367188 7.695312 5.65625 7.308594 6.027344 6.855469 C 6.09375 6.773438 6.15625 6.691406 6.21875 6.605469 C 7.765625 4.648438 7.765625 4.648438 9.007812 4.660156 Z M 9.007812 4.660156 "/>
<path style=" stroke:none;fill-rule:nonzero;fill:rgb(69.411767%,52.156866%,88.235295%);fill-opacity:1;" d="M 15.449219 10.894531 C 15.738281 11.765625 15.585938 12.730469 15.585938 13.65625 C 13.40625 13.65625 11.214844 13.65625 8.964844 13.65625 C 8.964844 13.609375 8.964844 13.5625 8.964844 13.515625 C 9.058594 13.515625 9.148438 13.523438 9.242188 13.53125 C 11.144531 13.683594 11.144531 13.683594 12.828125 13.007812 C 13.199219 12.621094 13.503906 12.179688 13.792969 11.722656 C 13.886719 11.632812 13.976562 11.539062 14.070312 11.449219 C 14.070312 11.539062 14.070312 11.632812 14.070312 11.722656 C 14.152344 11.660156 14.238281 11.589844 14.332031 11.515625 C 14.621094 11.308594 14.621094 11.308594 14.898438 11.308594 C 14.898438 11.21875 14.898438 11.125 14.898438 11.035156 C 15.171875 10.894531 15.171875 10.894531 15.449219 10.894531 Z M 15.449219 10.894531 "/>
<path style=" stroke:none;fill-rule:nonzero;fill:rgb(56.470591%,30.588236%,90.588236%);fill-opacity:1;" d="M 15.449219 10.894531 C 15.628906 11.421875 15.601562 11.902344 15.601562 12.441406 C 15.601562 12.542969 15.59375 12.648438 15.585938 12.757812 C 15.585938 13.007812 15.585938 13.257812 15.585938 13.515625 C 15.132812 13.515625 14.675781 13.515625 14.207031 13.515625 C 14.097656 12.964844 14.054688 12.550781 14.207031 12 C 14.300781 12.09375 14.390625 12.183594 14.484375 12.277344 C 14.511719 12.183594 14.539062 12.097656 14.566406 12.015625 C 14.601562 11.894531 14.640625 11.78125 14.675781 11.667969 C 14.710938 11.550781 14.746094 11.433594 14.773438 11.324219 C 14.9375 10.953125 15.046875 10.894531 15.449219 10.894531 Z M 15.449219 10.894531 "/>
<path style=" stroke:none;fill-rule:nonzero;fill:rgb(44.705883%,16.078432%,84.313726%);fill-opacity:1;" d="M 15.722656 13.515625 C 15.769531 13.515625 15.816406 13.515625 15.863281 13.515625 C 15.878906 13.875 15.894531 14.234375 15.902344 14.59375 C 15.902344 14.746094 15.902344 14.746094 15.917969 14.898438 C 15.917969 15.199219 15.917969 15.199219 15.863281 15.722656 C 15.585938 15.972656 15.585938 15.972656 15.3125 16.136719 C 15.242188 16.34375 15.242188 16.34375 15.171875 16.550781 C 15.082031 16.507812 14.988281 16.460938 14.898438 16.414062 C 14.65625 16.40625 14.417969 16.398438 14.179688 16.398438 C 13.957031 16.398438 13.957031 16.398438 13.738281 16.398438 C 13.589844 16.398438 13.445312 16.398438 13.296875 16.398438 C 13.148438 16.398438 12.996094 16.40625 12.839844 16.414062 C 12.464844 16.414062 12.09375 16.414062 11.722656 16.414062 C 11.679688 16.550781 11.632812 16.691406 11.585938 16.828125 C 11.492188 16.828125 11.402344 16.828125 11.308594 16.828125 C 11.265625 16.964844 11.21875 17.101562 11.171875 17.242188 C 11.082031 17.242188 10.988281 17.242188 10.894531 17.242188 C 10.859375 17.324219 10.820312 17.40625 10.773438 17.488281 C 10.621094 17.792969 10.621094 17.792969 10.34375 18.207031 C 10.207031 18.160156 10.070312 18.113281 9.929688 18.070312 C 10.179688 17.773438 10.425781 17.480469 10.675781 17.1875 C 10.75 17.09375 10.824219 17.007812 10.894531 16.925781 C 11.433594 16.289062 11.433594 16.289062 11.585938 16.136719 C 11.835938 16.121094 12.082031 16.109375 12.332031 16.109375 C 12.488281 16.101562 12.644531 16.097656 12.800781 16.097656 C 13.121094 16.085938 13.445312 16.078125 13.765625 16.070312 C 13.921875 16.058594 14.078125 16.054688 14.234375 16.054688 C 14.371094 16.046875 14.515625 16.042969 14.664062 16.042969 C 15.035156 16 15.269531 15.917969 15.585938 15.722656 C 15.585938 15.578125 15.585938 15.429688 15.585938 15.28125 C 15.585938 15.089844 15.582031 14.898438 15.574219 14.703125 C 15.574219 14.601562 15.574219 14.5 15.574219 14.398438 C 15.574219 14.152344 15.578125 13.902344 15.585938 13.65625 C 15.632812 13.609375 15.679688 13.5625 15.722656 13.515625 Z M 15.722656 13.515625 "/>
<path style=" stroke:none;fill-rule:nonzero;fill:rgb(36.078432%,9.019608%,81.176472%);fill-opacity:1;" d="M 9.792969 18.207031 C 9.945312 18.46875 9.945312 18.46875 10.070312 18.757812 C 10.023438 18.851562 9.976562 18.941406 9.929688 19.035156 C 9.839844 18.988281 9.746094 18.941406 9.65625 18.898438 C 9.65625 18.988281 9.65625 19.082031 9.65625 19.171875 C 10.457031 19.15625 11.253906 19.136719 12.054688 19.117188 C 12.332031 19.117188 12.605469 19.113281 12.882812 19.105469 C 13.277344 19.09375 13.667969 19.085938 14.054688 19.074219 C 14.175781 19.074219 14.300781 19.074219 14.425781 19.074219 C 15.1875 19.046875 15.929688 18.992188 16.691406 18.898438 C 16.621094 18.621094 16.621094 18.621094 16.550781 18.34375 C 16.828125 18.34375 17.101562 18.34375 17.378906 18.34375 C 17.007812 18.867188 16.746094 19.117188 16.136719 19.308594 C 15.792969 19.339844 15.792969 19.339844 15.421875 19.339844 C 15.214844 19.339844 15.214844 19.339844 15.007812 19.339844 C 14.859375 19.339844 14.710938 19.339844 14.566406 19.339844 C 14.410156 19.339844 14.253906 19.339844 14.097656 19.339844 C 13.617188 19.339844 13.136719 19.332031 12.648438 19.324219 C 12.316406 19.324219 11.984375 19.324219 11.65625 19.324219 C 10.855469 19.324219 10.050781 19.320312 9.242188 19.308594 C 9.394531 18.898438 9.546875 18.578125 9.792969 18.207031 Z M 9.792969 18.207031 "/>
<path style=" stroke:none;fill-rule:nonzero;fill:rgb(36.078432%,6.27451%,75.686276%);fill-opacity:1;" d="M 15.722656 10.894531 C 16.730469 10.894531 17.722656 10.894531 18.757812 10.894531 C 18.765625 11.6875 18.777344 12.472656 18.785156 13.253906 C 18.785156 13.523438 18.789062 13.792969 18.800781 14.070312 C 18.808594 14.453125 18.8125 14.835938 18.8125 15.214844 C 18.8125 15.332031 18.816406 15.457031 18.828125 15.585938 C 18.828125 16.757812 18.289062 17.488281 17.515625 18.34375 C 17.472656 18.34375 17.425781 18.34375 17.378906 18.34375 C 17.378906 18.113281 17.378906 17.886719 17.378906 17.65625 C 17.609375 17.5625 17.839844 17.472656 18.070312 17.378906 C 18.070312 17.148438 18.070312 16.917969 18.070312 16.691406 C 18.207031 16.691406 18.34375 16.691406 18.484375 16.691406 C 18.523438 14.828125 18.578125 12.953125 18.621094 11.035156 C 17.667969 11.035156 16.703125 11.035156 15.722656 11.035156 C 15.722656 10.988281 15.722656 10.941406 15.722656 10.894531 Z M 15.722656 10.894531 "/>
<path style=" stroke:none;fill-rule:nonzero;fill:rgb(38.431373%,5.098039%,89.411765%);fill-opacity:1;" d="M 15.449219 10.894531 C 16.496094 10.9375 17.546875 10.992188 18.621094 11.035156 C 18.621094 12.757812 18.621094 14.496094 18.621094 16.277344 C 18.574219 16.277344 18.527344 16.277344 18.484375 16.277344 C 18.484375 14.59375 18.484375 12.910156 18.484375 11.171875 C 17.324219 11.242188 17.324219 11.242188 16.136719 11.308594 C 16.097656 11.667969 16.042969 12.039062 16 12.414062 C 15.863281 12.414062 15.722656 12.414062 15.585938 12.414062 C 15.546875 11.917969 15.488281 11.40625 15.449219 10.894531 Z M 15.449219 10.894531 "/>
<path style=" stroke:none;fill-rule:nonzero;fill:rgb(34.117648%,4.705882%,93.725491%);fill-opacity:1;" d="M 10.894531 17.242188 C 10.988281 17.289062 11.082031 17.332031 11.171875 17.378906 C 11.019531 17.847656 10.828125 18.015625 10.484375 18.34375 C 10.4375 18.4375 10.390625 18.527344 10.34375 18.621094 C 10.4375 18.621094 10.527344 18.621094 10.621094 18.621094 C 10.667969 18.710938 10.710938 18.804688 10.757812 18.898438 C 11.105469 18.910156 11.40625 18.910156 11.75 18.8125 C 12 18.757812 12 18.757812 12.277344 18.898438 C 12.671875 18.925781 13.066406 18.953125 13.460938 18.980469 C 13.574219 18.980469 13.6875 18.984375 13.808594 18.992188 C 14.074219 19.011719 14.34375 19.023438 14.621094 19.035156 C 14.621094 19.082031 14.621094 19.125 14.621094 19.171875 C 12.980469 19.171875 11.339844 19.171875 9.65625 19.171875 C 9.65625 19.082031 9.65625 18.988281 9.65625 18.898438 C 9.746094 18.851562 9.839844 18.804688 9.929688 18.757812 C 9.929688 18.574219 9.929688 18.390625 9.929688 18.207031 C 10.070312 18.207031 10.207031 18.207031 10.34375 18.207031 C 10.382812 18.125 10.421875 18.039062 10.46875 17.960938 C 10.621094 17.65625 10.621094 17.65625 10.894531 17.242188 Z M 10.894531 17.242188 "/>
<path style=" stroke:none;fill-rule:nonzero;fill:rgb(81.960785%,45.490196%,96.078432%);fill-opacity:1;" d="M 13.929688 11.449219 C 14.023438 11.585938 14.117188 11.722656 14.207031 11.863281 C 14.152344 11.917969 14.09375 11.972656 14.027344 12.027344 C 13.777344 12.277344 13.777344 12.277344 13.601562 12.605469 C 13.269531 13.132812 13.007812 13.460938 12.414062 13.65625 C 12.148438 13.664062 11.878906 13.667969 11.613281 13.667969 C 11.46875 13.667969 11.308594 13.667969 11.144531 13.667969 C 10.988281 13.667969 10.828125 13.667969 10.660156 13.667969 C 10.507812 13.667969 10.339844 13.664062 10.164062 13.65625 C 9.769531 13.65625 9.371094 13.65625 8.964844 13.65625 C 8.964844 13.609375 8.964844 13.5625 8.964844 13.515625 C 9.101562 13.515625 9.101562 13.515625 9.242188 13.53125 C 11.144531 13.683594 11.144531 13.683594 12.828125 13.007812 C 13.28125 12.550781 13.640625 12.027344 13.929688 11.449219 Z M 13.929688 11.449219 "/>
<path style=" stroke:none;fill-rule:nonzero;fill:rgb(60.784316%,40.784314%,84.705883%);fill-opacity:1;" d="M 15.171875 10.894531 C 15.265625 10.941406 15.355469 10.988281 15.449219 11.035156 C 15.382812 11.097656 15.320312 11.167969 15.253906 11.242188 C 15.035156 11.585938 15.007812 11.738281 14.964844 12.136719 C 14.921875 12.621094 14.828125 12.882812 14.484375 13.242188 C 14.757812 13.289062 15.035156 13.332031 15.3125 13.378906 C 15.3125 13.425781 15.3125 13.472656 15.3125 13.515625 C 14.953125 13.515625 14.578125 13.515625 14.207031 13.515625 C 14.097656 12.964844 14.054688 12.550781 14.207031 12 C 14.300781 12.09375 14.390625 12.183594 14.484375 12.277344 C 14.511719 12.183594 14.539062 12.097656 14.566406 12.015625 C 14.601562 11.894531 14.640625 11.78125 14.675781 11.667969 C 14.710938 11.550781 14.746094 11.433594 14.773438 11.324219 C 14.898438 11.035156 14.898438 11.035156 15.171875 10.894531 Z M 15.171875 10.894531 "/>
<path style=" stroke:none;fill-rule:nonzero;fill:rgb(37.254903%,12.54902%,78.823531%);fill-opacity:1;" d="M 11.929688 16.125 C 12.136719 16.125 12.136719 16.125 12.359375 16.125 C 12.496094 16.132812 12.632812 16.136719 12.773438 16.136719 C 12.9375 16.136719 12.9375 16.136719 13.105469 16.136719 C 13.105469 16.183594 13.105469 16.230469 13.105469 16.277344 C 12.648438 16.316406 12.195312 16.371094 11.722656 16.414062 C 11.679688 16.550781 11.632812 16.691406 11.585938 16.828125 C 11.492188 16.828125 11.402344 16.828125 11.308594 16.828125 C 11.265625 16.964844 11.21875 17.101562 11.171875 17.242188 C 11.082031 17.242188 10.988281 17.242188 10.894531 17.242188 C 10.859375 17.324219 10.820312 17.40625 10.773438 17.488281 C 10.621094 17.792969 10.621094 17.792969 10.34375 18.207031 C 10.207031 18.160156 10.070312 18.113281 9.929688 18.070312 C 10.179688 17.773438 10.425781 17.480469 10.675781 17.1875 C 10.75 17.09375 10.824219 17.007812 10.894531 16.925781 C 11.558594 16.136719 11.558594 16.136719 11.929688 16.125 Z M 11.929688 16.125 "/>
<path style=" stroke:none;fill-rule:nonzero;fill:rgb(40.784314%,9.411765%,82.352942%);fill-opacity:1;" d="M 18.484375 16.277344 C 18.527344 16.277344 18.574219 16.277344 18.621094 16.277344 C 18.675781 16.746094 18.632812 16.9375 18.386719 17.335938 C 18.234375 17.515625 18.234375 17.515625 18.082031 17.695312 C 17.980469 17.816406 17.875 17.941406 17.765625 18.070312 C 17.683594 18.160156 17.601562 18.253906 17.515625 18.34375 C 17.472656 18.34375 17.425781 18.34375 17.378906 18.34375 C 17.378906 18.113281 17.378906 17.886719 17.378906 17.65625 C 17.609375 17.5625 17.839844 17.472656 18.070312 17.378906 C 18.070312 17.148438 18.070312 16.917969 18.070312 16.691406 C 18.207031 16.691406 18.34375 16.691406 18.484375 16.691406 C 18.484375 16.550781 18.484375 16.414062 18.484375 16.277344 Z M 18.484375 16.277344 "/>
<path style=" stroke:none;fill-rule:nonzero;fill:rgb(41.176471%,9.803922%,85.09804%);fill-opacity:1;" d="M 16.550781 18.34375 C 16.828125 18.34375 17.101562 18.34375 17.378906 18.34375 C 16.980469 18.925781 16.691406 19.144531 16 19.308594 C 16 19.171875 16 19.035156 16 18.898438 C 16.230469 18.898438 16.460938 18.898438 16.691406 18.898438 C 16.644531 18.710938 16.597656 18.527344 16.550781 18.34375 Z M 16.550781 18.34375 "/>
<path style=" stroke:none;fill-rule:nonzero;fill:rgb(37.64706%,4.313726%,94.117647%);fill-opacity:1;" d="M 15.585938 12.414062 C 15.863281 12.414062 16.136719 12.414062 16.414062 12.414062 C 16.320312 12.597656 16.230469 12.78125 16.136719 12.964844 C 16.046875 12.917969 15.953125 12.875 15.863281 12.828125 C 15.816406 13.105469 15.769531 13.378906 15.722656 13.65625 C 15.679688 13.65625 15.632812 13.65625 15.585938 13.65625 C 15.585938 13.242188 15.585938 12.839844 15.585938 12.414062 Z M 15.585938 12.414062 "/>
</g>
</svg>
