<?xml version="1.0" encoding="UTF-8"?>
<svg xmlns="http://www.w3.org/2000/svg" xmlns:xlink="http://www.w3.org/1999/xlink" width="64px" height="64px" viewBox="0 0 64 64" version="1.1">
<g id="surface1">
<path style=" stroke:none;fill-rule:nonzero;fill:rgb(98.823529%,80.784315%,96.862745%);fill-opacity:1;" d="M 34.207031 0 C 35.75 0.660156 37.148438 1.542969 38.582031 2.464844 C 39.417969 2.980469 40.261719 3.496094 41.121094 4.007812 C 42.398438 4.820312 43.683594 5.628906 44.984375 6.4375 C 46.429688 7.34375 47.890625 8.226562 49.359375 9.085938 C 49.730469 9.332031 50.109375 9.5625 50.5 9.785156 C 51.238281 10.226562 51.972656 10.667969 52.707031 11.109375 C 57.96875 14.269531 57.96875 14.269531 58.851562 16.550781 C 58.925781 17.542969 58.960938 18.539062 58.960938 19.53125 C 58.960938 19.824219 58.960938 20.121094 58.960938 20.414062 C 58.960938 21.417969 58.960938 22.414062 58.960938 23.394531 C 58.960938 24.078125 58.960938 24.765625 58.960938 25.453125 C 58.960938 26.898438 58.960938 28.335938 58.960938 29.757812 C 58.960938 31.59375 58.972656 33.433594 58.996094 35.273438 C 58.996094 36.695312 58.996094 38.117188 58.996094 39.539062 C 58.996094 40.226562 58.996094 40.902344 58.996094 41.5625 C 58.996094 42.519531 58.996094 43.476562 58.996094 44.433594 C 58.996094 44.703125 58.996094 44.984375 58.996094 45.277344 C 58.960938 47.265625 58.554688 48.476562 57.121094 49.914062 C 55.136719 51.457031 53.003906 52.746094 50.796875 54.03125 C 48.589844 55.28125 46.417969 56.605469 44.285156 57.96875 C 41.96875 59.402344 39.613281 60.835938 37.296875 62.269531 C 37.074219 62.394531 36.84375 62.527344 36.597656 62.675781 C 34.539062 63.925781 32.917969 64.292969 30.527344 64 C 27.953125 62.96875 25.601562 61.460938 23.28125 59.992188 C 22.621094 59.550781 21.945312 59.121094 21.261719 58.703125 C 20.917969 58.484375 20.5625 58.261719 20.191406 58.042969 C 19.089844 57.355469 17.984375 56.679688 16.882812 56.019531 C 16.515625 55.796875 16.136719 55.566406 15.742188 55.320312 C 15.03125 54.902344 14.320312 54.472656 13.609375 54.03125 C 6.070312 49.507812 6.070312 49.507812 5.148438 46.710938 C 5.101562 45.78125 5.074219 44.847656 5.074219 43.917969 C 5.074219 43.648438 5.074219 43.367188 5.074219 43.070312 C 5.050781 42.140625 5.039062 41.207031 5.039062 40.277344 C 5.039062 39.796875 5.039062 39.796875 5.039062 39.320312 C 5.039062 37.601562 5.027344 35.898438 5.003906 34.207031 C 5.003906 32.808594 5.003906 31.410156 5.003906 30.015625 C 4.976562 28.320312 4.964844 26.628906 4.964844 24.9375 C 4.964844 24.300781 4.953125 23.664062 4.929688 23.023438 C 4.855469 16.882812 4.855469 16.882812 6.472656 14.859375 C 7.171875 14.160156 7.835938 13.574219 8.644531 13.058594 C 8.960938 12.859375 9.28125 12.652344 9.601562 12.433594 C 9.941406 12.210938 10.300781 11.992188 10.667969 11.769531 C 11.035156 11.550781 11.414062 11.316406 11.808594 11.070312 C 13.03125 10.3125 14.269531 9.550781 15.523438 8.789062 C 15.964844 8.519531 16.417969 8.25 16.882812 7.980469 C 17.570312 7.566406 18.257812 7.148438 18.941406 6.730469 C 21.589844 5.136719 24.238281 3.53125 26.886719 1.914062 C 27.207031 1.714844 27.539062 1.519531 27.878906 1.324219 C 28.148438 1.152344 28.433594 0.96875 28.726562 0.773438 C 30.527344 -0.292969 32.148438 -0.332031 34.207031 0 Z M 34.207031 0 "/>
<path style=" stroke:none;fill-rule:nonzero;fill:rgb(76.47059%,1.176471%,93.725491%);fill-opacity:1;" d="M 21.480469 26.8125 C 21.871094 26.8125 22.277344 26.8125 22.695312 26.8125 C 23.136719 26.8125 23.578125 26.8125 24.019531 26.8125 C 24.460938 26.8125 24.914062 26.8125 25.378906 26.8125 C 26.800781 26.8125 28.234375 26.8125 29.683594 26.8125 C 30.640625 26.8125 31.609375 26.824219 32.589844 26.851562 C 34.96875 26.851562 37.34375 26.851562 39.722656 26.851562 C 39.464844 28.027344 39.0625 28.875 38.398438 29.867188 C 38.253906 30.136719 38.09375 30.40625 37.921875 30.675781 C 37.699219 30.96875 37.699219 30.96875 37.515625 31.265625 C 37.847656 31.007812 37.847656 31.007812 38.214844 30.710938 C 38.988281 30.160156 38.988281 30.160156 39.722656 30.160156 C 39.722656 29.914062 39.722656 29.671875 39.722656 29.425781 C 40.71875 28.910156 41.488281 29.019531 42.628906 29.019531 C 43.046875 29.019531 43.476562 29.019531 43.917969 29.019531 C 44.359375 29.019531 44.8125 29.019531 45.277344 29.019531 C 45.742188 29.019531 46.210938 29.03125 46.675781 29.058594 C 47.78125 29.058594 48.894531 29.058594 50.023438 29.058594 C 50.046875 31.167969 50.070312 33.261719 50.097656 35.347656 C 50.097656 36.058594 50.109375 36.78125 50.132812 37.515625 C 50.15625 38.546875 50.171875 39.566406 50.171875 40.570312 C 50.171875 40.890625 50.183594 41.21875 50.207031 41.5625 C 50.207031 44.726562 48.847656 46.527344 46.75 48.847656 C 46.429688 49.1875 46.113281 49.53125 45.792969 49.875 C 44.359375 51.238281 43.070312 51.605469 41.121094 51.566406 C 40.570312 51.566406 40.570312 51.566406 40.019531 51.566406 C 39.625 51.566406 39.234375 51.566406 38.839844 51.566406 C 38.425781 51.566406 38.007812 51.566406 37.589844 51.566406 C 36.316406 51.566406 35.027344 51.554688 33.730469 51.53125 C 32.847656 51.53125 31.964844 51.53125 31.082031 51.53125 C 28.945312 51.53125 26.800781 51.519531 24.644531 51.496094 C 25.085938 50.207031 25.601562 49.25 26.484375 48.21875 C 26.679688 47.949219 26.886719 47.695312 27.109375 47.449219 C 27.328125 47.179688 27.550781 46.910156 27.769531 46.640625 C 27.992188 46.371094 28.210938 46.101562 28.433594 45.828125 C 30.710938 43.070312 30.710938 43.070312 31.816406 42.925781 C 32.183594 42.925781 32.550781 42.925781 32.917969 42.925781 C 33.335938 42.898438 33.753906 42.886719 34.171875 42.886719 C 34.585938 42.863281 35.015625 42.851562 35.457031 42.851562 C 36.292969 42.824219 37.125 42.800781 37.957031 42.777344 C 38.328125 42.777344 38.707031 42.777344 39.097656 42.777344 C 40.203125 42.703125 40.203125 42.703125 41.5625 41.929688 C 41.5625 40.09375 41.5625 38.289062 41.5625 36.414062 C 35.605469 36.414062 29.683594 36.414062 23.539062 36.414062 C 23.539062 39.097656 23.539062 41.746094 23.539062 44.503906 C 22.140625 46.527344 21.1875 47.707031 19.496094 49.289062 C 19.199219 49.703125 18.90625 50.109375 18.613281 50.5 C 17.65625 51.496094 17.65625 51.496094 16.917969 51.605469 C 15.816406 51.53125 15.816406 51.53125 14.710938 51.496094 C 14.6875 48.648438 14.664062 45.804688 14.640625 42.960938 C 14.640625 42.003906 14.625 41.046875 14.601562 40.09375 C 14.578125 38.695312 14.566406 37.296875 14.566406 35.898438 C 14.566406 35.480469 14.554688 35.054688 14.527344 34.613281 C 14.527344 31.816406 14.824219 30.457031 16.773438 28.46875 C 18.390625 27.144531 19.421875 26.8125 21.480469 26.8125 Z M 21.480469 26.8125 "/>
<path style=" stroke:none;fill-rule:nonzero;fill:rgb(36.470589%,1.568628%,97.254902%);fill-opacity:1;" d="M 41.195312 29.058594 C 44.101562 29.058594 47.007812 29.058594 50.023438 29.058594 C 50.046875 31.167969 50.070312 33.261719 50.097656 35.347656 C 50.097656 36.058594 50.109375 36.78125 50.132812 37.515625 C 50.15625 38.546875 50.171875 39.566406 50.171875 40.570312 C 50.171875 40.890625 50.183594 41.21875 50.207031 41.5625 C 50.207031 44.726562 48.847656 46.527344 46.75 48.847656 C 46.269531 49.359375 46.269531 49.359375 45.792969 49.875 C 44.359375 51.238281 43.070312 51.605469 41.121094 51.566406 C 40.570312 51.566406 40.570312 51.566406 40.019531 51.566406 C 39.625 51.566406 39.234375 51.566406 38.839844 51.566406 C 38.425781 51.566406 38.007812 51.566406 37.589844 51.566406 C 36.316406 51.566406 35.027344 51.554688 33.730469 51.53125 C 32.847656 51.53125 31.964844 51.53125 31.082031 51.53125 C 28.945312 51.53125 26.800781 51.519531 24.644531 51.496094 C 25.085938 50.207031 25.601562 49.25 26.484375 48.21875 C 26.777344 47.816406 26.777344 47.816406 27.109375 47.449219 C 27.328125 47.179688 27.550781 46.910156 27.769531 46.640625 C 27.992188 46.371094 28.210938 46.101562 28.433594 45.828125 C 30.710938 43.070312 30.710938 43.070312 31.816406 42.925781 C 32.183594 42.925781 32.550781 42.925781 32.917969 42.925781 C 33.335938 42.898438 33.753906 42.886719 34.171875 42.886719 C 34.585938 42.863281 35.015625 42.851562 35.457031 42.851562 C 36.292969 42.824219 37.125 42.800781 37.957031 42.777344 C 38.328125 42.777344 38.707031 42.777344 39.097656 42.777344 C 40.203125 42.703125 40.203125 42.703125 41.5625 41.929688 C 41.378906 35.566406 41.378906 35.566406 41.195312 29.058594 Z M 41.195312 29.058594 "/>
<path style=" stroke:none;fill-rule:nonzero;fill:rgb(98.431373%,4.705882%,63.921571%);fill-opacity:1;" d="M 24.019531 12.433594 C 24.289062 12.433594 24.570312 12.433594 24.863281 12.433594 C 25.746094 12.433594 26.640625 12.433594 27.550781 12.433594 C 28.1875 12.433594 28.8125 12.433594 29.425781 12.433594 C 31.066406 12.433594 32.710938 12.445312 34.355469 12.46875 C 36.046875 12.46875 37.726562 12.46875 39.394531 12.46875 C 42.703125 12.46875 46 12.480469 49.289062 12.503906 C 48.945312 12.972656 48.601562 13.4375 48.257812 13.902344 C 48.0625 14.148438 47.863281 14.40625 47.667969 14.675781 C 47.472656 14.921875 47.277344 15.179688 47.082031 15.449219 C 46.824219 15.816406 46.824219 15.816406 46.527344 16.183594 C 46.039062 16.820312 45.546875 17.460938 45.058594 18.097656 C 44.886719 18.316406 44.714844 18.550781 44.542969 18.796875 C 44.394531 18.992188 44.234375 19.199219 44.0625 19.421875 C 43.917969 19.617188 43.769531 19.8125 43.621094 20.007812 C 42.410156 21.261719 41.269531 21.996094 39.539062 22.253906 C 39.074219 22.253906 38.597656 22.253906 38.105469 22.253906 C 37.699219 22.253906 37.699219 22.253906 37.332031 22.253906 C 36.476562 22.226562 35.605469 22.214844 34.722656 22.214844 C 34.132812 22.214844 33.542969 22.214844 32.957031 22.214844 C 31.386719 22.191406 29.804688 22.179688 28.210938 22.179688 C 26.617188 22.15625 25.023438 22.140625 23.429688 22.140625 C 20.265625 22.117188 17.117188 22.09375 13.976562 22.070312 C 14.308594 20.523438 15.082031 19.496094 16.074219 18.28125 C 16.246094 18.058594 16.417969 17.839844 16.589844 17.617188 C 20.707031 12.394531 20.707031 12.394531 24.019531 12.433594 Z M 24.019531 12.433594 "/>
<path style=" stroke:none;fill-rule:nonzero;fill:rgb(69.411767%,52.156866%,88.235295%);fill-opacity:1;" d="M 41.195312 29.058594 C 41.96875 31.375 41.5625 33.949219 41.5625 36.414062 C 35.75 36.414062 29.902344 36.414062 23.90625 36.414062 C 23.90625 36.292969 23.90625 36.167969 23.90625 36.046875 C 24.152344 36.046875 24.398438 36.058594 24.644531 36.082031 C 29.71875 36.488281 29.71875 36.488281 34.207031 34.683594 C 35.199219 33.65625 36.007812 32.476562 36.78125 31.265625 C 37.027344 31.019531 37.273438 30.773438 37.515625 30.527344 C 37.515625 30.773438 37.515625 31.019531 37.515625 31.265625 C 37.738281 31.09375 37.972656 30.910156 38.214844 30.710938 C 38.988281 30.160156 38.988281 30.160156 39.722656 30.160156 C 39.722656 29.914062 39.722656 29.671875 39.722656 29.425781 C 40.460938 29.058594 40.460938 29.058594 41.195312 29.058594 Z M 41.195312 29.058594 "/>
<path style=" stroke:none;fill-rule:nonzero;fill:rgb(56.470591%,30.588236%,90.588236%);fill-opacity:1;" d="M 41.195312 29.058594 C 41.671875 30.457031 41.601562 31.742188 41.601562 33.175781 C 41.601562 33.445312 41.585938 33.730469 41.5625 34.023438 C 41.5625 34.683594 41.5625 35.359375 41.5625 36.046875 C 40.347656 36.046875 39.136719 36.046875 37.886719 36.046875 C 37.589844 34.574219 37.480469 33.472656 37.886719 32 C 38.128906 32.246094 38.375 32.492188 38.621094 32.734375 C 38.695312 32.492188 38.769531 32.257812 38.839844 32.035156 C 38.941406 31.71875 39.039062 31.410156 39.136719 31.117188 C 39.234375 30.796875 39.320312 30.492188 39.394531 30.199219 C 39.835938 29.203125 40.128906 29.058594 41.195312 29.058594 Z M 41.195312 29.058594 "/>
<path style=" stroke:none;fill-rule:nonzero;fill:rgb(44.705883%,16.078432%,84.313726%);fill-opacity:1;" d="M 41.929688 36.046875 C 42.054688 36.046875 42.175781 36.046875 42.300781 36.046875 C 42.347656 37.003906 42.382812 37.957031 42.410156 38.914062 C 42.410156 39.320312 42.410156 39.320312 42.445312 39.722656 C 42.445312 40.535156 42.445312 40.535156 42.300781 41.929688 C 41.5625 42.59375 41.5625 42.59375 40.828125 43.035156 C 40.644531 43.585938 40.644531 43.585938 40.460938 44.136719 C 40.214844 44.015625 39.96875 43.894531 39.722656 43.769531 C 39.085938 43.746094 38.449219 43.734375 37.8125 43.734375 C 37.222656 43.734375 37.222656 43.734375 36.632812 43.734375 C 36.242188 43.734375 35.851562 43.734375 35.457031 43.734375 C 35.066406 43.734375 34.660156 43.746094 34.242188 43.769531 C 33.238281 43.769531 32.246094 43.769531 31.265625 43.769531 C 31.140625 44.136719 31.019531 44.503906 30.898438 44.875 C 30.652344 44.875 30.40625 44.875 30.160156 44.875 C 30.039062 45.242188 29.914062 45.609375 29.792969 45.976562 C 29.546875 45.976562 29.300781 45.976562 29.058594 45.976562 C 28.960938 46.199219 28.847656 46.417969 28.726562 46.640625 C 28.320312 47.449219 28.320312 47.449219 27.585938 48.550781 C 27.21875 48.429688 26.851562 48.304688 26.484375 48.183594 C 27.144531 47.398438 27.808594 46.613281 28.46875 45.828125 C 28.664062 45.585938 28.859375 45.351562 29.058594 45.132812 C 30.492188 43.4375 30.492188 43.4375 30.898438 43.035156 C 31.558594 42.984375 32.21875 42.960938 32.882812 42.960938 C 33.300781 42.9375 33.714844 42.925781 34.132812 42.925781 C 34.992188 42.898438 35.851562 42.875 36.707031 42.851562 C 37.125 42.824219 37.542969 42.8125 37.957031 42.8125 C 38.328125 42.789062 38.707031 42.777344 39.097656 42.777344 C 40.09375 42.667969 40.71875 42.445312 41.5625 41.929688 C 41.5625 41.539062 41.5625 41.144531 41.5625 40.753906 C 41.5625 40.238281 41.550781 39.722656 41.527344 39.210938 C 41.527344 38.941406 41.527344 38.667969 41.527344 38.398438 C 41.527344 37.738281 41.539062 37.074219 41.5625 36.414062 C 41.6875 36.292969 41.808594 36.167969 41.929688 36.046875 Z M 41.929688 36.046875 "/>
<path style=" stroke:none;fill-rule:nonzero;fill:rgb(36.078432%,9.019608%,81.176472%);fill-opacity:1;" d="M 26.113281 48.550781 C 26.519531 49.25 26.519531 49.25 26.851562 50.023438 C 26.726562 50.269531 26.605469 50.511719 26.484375 50.757812 C 26.238281 50.636719 25.992188 50.511719 25.746094 50.390625 C 25.746094 50.636719 25.746094 50.882812 25.746094 51.125 C 27.878906 51.078125 30.015625 51.027344 32.148438 50.980469 C 32.882812 50.980469 33.617188 50.96875 34.355469 50.941406 C 35.410156 50.917969 36.449219 50.894531 37.480469 50.867188 C 37.800781 50.867188 38.128906 50.867188 38.472656 50.867188 C 40.496094 50.796875 42.484375 50.648438 44.503906 50.390625 C 44.320312 49.65625 44.320312 49.65625 44.136719 48.917969 C 44.875 48.917969 45.609375 48.917969 46.34375 48.917969 C 45.351562 50.316406 44.652344 50.980469 43.035156 51.496094 C 42.113281 51.566406 42.113281 51.566406 41.121094 51.566406 C 40.570312 51.566406 40.570312 51.566406 40.019531 51.566406 C 39.625 51.566406 39.234375 51.566406 38.839844 51.566406 C 38.425781 51.566406 38.007812 51.566406 37.589844 51.566406 C 36.316406 51.566406 35.027344 51.554688 33.730469 51.53125 C 32.847656 51.53125 31.964844 51.53125 31.082031 51.53125 C 28.945312 51.53125 26.800781 51.519531 24.644531 51.496094 C 25.046875 50.390625 25.453125 49.542969 26.113281 48.550781 Z M 26.113281 48.550781 "/>
<path style=" stroke:none;fill-rule:nonzero;fill:rgb(36.078432%,6.27451%,75.686276%);fill-opacity:1;" d="M 41.929688 29.058594 C 44.617188 29.058594 47.265625 29.058594 50.023438 29.058594 C 50.046875 31.167969 50.070312 33.261719 50.097656 35.347656 C 50.097656 36.058594 50.109375 36.78125 50.132812 37.515625 C 50.15625 38.546875 50.171875 39.566406 50.171875 40.570312 C 50.171875 40.890625 50.183594 41.21875 50.207031 41.5625 C 50.207031 44.691406 48.773438 46.640625 46.710938 48.917969 C 46.589844 48.917969 46.46875 48.917969 46.34375 48.917969 C 46.34375 48.304688 46.34375 47.695312 46.34375 47.082031 C 46.957031 46.835938 47.570312 46.589844 48.183594 46.34375 C 48.183594 45.730469 48.183594 45.117188 48.183594 44.503906 C 48.550781 44.503906 48.917969 44.503906 49.289062 44.503906 C 49.398438 39.539062 49.542969 34.539062 49.65625 29.425781 C 47.117188 29.425781 44.542969 29.425781 41.929688 29.425781 C 41.929688 29.300781 41.929688 29.179688 41.929688 29.058594 Z M 41.929688 29.058594 "/>
<path style=" stroke:none;fill-rule:nonzero;fill:rgb(38.431373%,5.098039%,89.411765%);fill-opacity:1;" d="M 41.195312 29.058594 C 43.992188 29.167969 46.785156 29.316406 49.65625 29.425781 C 49.65625 34.023438 49.65625 38.65625 49.65625 43.402344 C 49.53125 43.402344 49.410156 43.402344 49.289062 43.402344 C 49.289062 38.914062 49.289062 34.425781 49.289062 29.792969 C 46.199219 29.976562 46.199219 29.976562 43.035156 30.160156 C 42.925781 31.117188 42.777344 32.109375 42.667969 33.101562 C 42.300781 33.101562 41.929688 33.101562 41.5625 33.101562 C 41.453125 31.78125 41.304688 30.417969 41.195312 29.058594 Z M 41.195312 29.058594 "/>
<path style=" stroke:none;fill-rule:nonzero;fill:rgb(34.117648%,4.705882%,93.725491%);fill-opacity:1;" d="M 29.058594 45.976562 C 29.300781 46.101562 29.546875 46.222656 29.792969 46.34375 C 29.386719 47.59375 28.875 48.035156 27.953125 48.917969 C 27.832031 49.164062 27.707031 49.410156 27.585938 49.65625 C 27.832031 49.65625 28.078125 49.65625 28.320312 49.65625 C 28.445312 49.898438 28.566406 50.144531 28.691406 50.390625 C 29.609375 50.425781 30.417969 50.425781 31.339844 50.171875 C 32 50.023438 32 50.023438 32.734375 50.390625 C 33.789062 50.464844 34.84375 50.539062 35.898438 50.613281 C 36.191406 50.613281 36.5 50.625 36.820312 50.648438 C 37.53125 50.699219 38.253906 50.734375 38.988281 50.757812 C 38.988281 50.882812 38.988281 51.003906 38.988281 51.125 C 34.613281 51.125 30.234375 51.125 25.746094 51.125 C 25.746094 50.882812 25.746094 50.636719 25.746094 50.390625 C 25.992188 50.269531 26.238281 50.144531 26.484375 50.023438 C 26.484375 49.53125 26.484375 49.042969 26.484375 48.550781 C 26.851562 48.550781 27.21875 48.550781 27.585938 48.550781 C 27.683594 48.332031 27.792969 48.109375 27.917969 47.890625 C 28.320312 47.082031 28.320312 47.082031 29.058594 45.976562 Z M 29.058594 45.976562 "/>
<path style=" stroke:none;fill-rule:nonzero;fill:rgb(81.960785%,45.490196%,96.078432%);fill-opacity:1;" d="M 37.148438 30.527344 C 37.394531 30.898438 37.640625 31.265625 37.886719 31.632812 C 37.738281 31.78125 37.578125 31.925781 37.40625 32.074219 C 36.746094 32.734375 36.746094 32.734375 36.265625 33.617188 C 35.382812 35.015625 34.683594 35.898438 33.101562 36.414062 C 32.390625 36.4375 31.679688 36.449219 30.96875 36.449219 C 30.578125 36.449219 30.160156 36.449219 29.71875 36.449219 C 29.300781 36.449219 28.875 36.449219 28.433594 36.449219 C 28.015625 36.449219 27.574219 36.4375 27.109375 36.414062 C 26.054688 36.414062 24.988281 36.414062 23.90625 36.414062 C 23.90625 36.292969 23.90625 36.167969 23.90625 36.046875 C 24.277344 36.046875 24.277344 36.046875 24.644531 36.082031 C 29.71875 36.488281 29.71875 36.488281 34.207031 34.683594 C 35.421875 33.472656 36.378906 32.074219 37.148438 30.527344 Z M 37.148438 30.527344 "/>
<path style=" stroke:none;fill-rule:nonzero;fill:rgb(60.784316%,40.784314%,84.705883%);fill-opacity:1;" d="M 40.460938 29.058594 C 40.703125 29.179688 40.949219 29.300781 41.195312 29.425781 C 41.023438 29.597656 40.851562 29.78125 40.679688 29.976562 C 40.09375 30.898438 40.019531 31.300781 39.90625 32.367188 C 39.796875 33.65625 39.539062 34.355469 38.621094 35.308594 C 39.355469 35.433594 40.09375 35.554688 40.828125 35.679688 C 40.828125 35.800781 40.828125 35.921875 40.828125 36.046875 C 39.871094 36.046875 38.878906 36.046875 37.886719 36.046875 C 37.589844 34.574219 37.480469 33.472656 37.886719 32 C 38.128906 32.246094 38.375 32.492188 38.621094 32.734375 C 38.695312 32.492188 38.769531 32.257812 38.839844 32.035156 C 38.941406 31.71875 39.039062 31.410156 39.136719 31.117188 C 39.234375 30.796875 39.320312 30.492188 39.394531 30.199219 C 39.722656 29.425781 39.722656 29.425781 40.460938 29.058594 Z M 40.460938 29.058594 "/>
<path style=" stroke:none;fill-rule:nonzero;fill:rgb(37.254903%,12.54902%,78.823531%);fill-opacity:1;" d="M 31.816406 42.996094 C 32.367188 42.996094 32.367188 42.996094 32.957031 42.996094 C 33.324219 43.023438 33.691406 43.035156 34.058594 43.035156 C 34.5 43.035156 34.5 43.035156 34.941406 43.035156 C 34.941406 43.15625 34.941406 43.28125 34.941406 43.402344 C 33.730469 43.511719 32.515625 43.660156 31.265625 43.769531 C 31.140625 44.136719 31.019531 44.503906 30.898438 44.875 C 30.652344 44.875 30.40625 44.875 30.160156 44.875 C 30.039062 45.242188 29.914062 45.609375 29.792969 45.976562 C 29.546875 45.976562 29.300781 45.976562 29.058594 45.976562 C 28.960938 46.199219 28.847656 46.417969 28.726562 46.640625 C 28.320312 47.449219 28.320312 47.449219 27.585938 48.550781 C 27.21875 48.429688 26.851562 48.304688 26.484375 48.183594 C 27.144531 47.398438 27.808594 46.613281 28.46875 45.828125 C 28.664062 45.585938 28.859375 45.351562 29.058594 45.132812 C 30.824219 43.035156 30.824219 43.035156 31.816406 42.996094 Z M 31.816406 42.996094 "/>
<path style=" stroke:none;fill-rule:nonzero;fill:rgb(40.784314%,9.411765%,82.352942%);fill-opacity:1;" d="M 49.289062 43.402344 C 49.410156 43.402344 49.53125 43.402344 49.65625 43.402344 C 49.800781 44.652344 49.691406 45.167969 49.03125 46.234375 C 48.625 46.710938 48.625 46.710938 48.21875 47.191406 C 47.949219 47.507812 47.667969 47.839844 47.375 48.183594 C 47.152344 48.429688 46.933594 48.675781 46.710938 48.917969 C 46.589844 48.917969 46.46875 48.917969 46.34375 48.917969 C 46.34375 48.304688 46.34375 47.695312 46.34375 47.082031 C 46.957031 46.835938 47.570312 46.589844 48.183594 46.34375 C 48.183594 45.730469 48.183594 45.117188 48.183594 44.503906 C 48.550781 44.503906 48.917969 44.503906 49.289062 44.503906 C 49.289062 44.136719 49.289062 43.769531 49.289062 43.402344 Z M 49.289062 43.402344 "/>
<path style=" stroke:none;fill-rule:nonzero;fill:rgb(41.176471%,9.803922%,85.09804%);fill-opacity:1;" d="M 44.136719 48.917969 C 44.875 48.917969 45.609375 48.917969 46.34375 48.917969 C 45.277344 50.464844 44.503906 51.054688 42.667969 51.496094 C 42.667969 51.125 42.667969 50.757812 42.667969 50.390625 C 43.28125 50.390625 43.894531 50.390625 44.503906 50.390625 C 44.382812 49.898438 44.261719 49.410156 44.136719 48.917969 Z M 44.136719 48.917969 "/>
<path style=" stroke:none;fill-rule:nonzero;fill:rgb(37.64706%,4.313726%,94.117647%);fill-opacity:1;" d="M 41.5625 33.101562 C 42.300781 33.101562 43.035156 33.101562 43.769531 33.101562 C 43.523438 33.59375 43.28125 34.085938 43.035156 34.574219 C 42.789062 34.453125 42.542969 34.328125 42.300781 34.207031 C 42.175781 34.941406 42.054688 35.679688 41.929688 36.414062 C 41.808594 36.414062 41.6875 36.414062 41.5625 36.414062 C 41.5625 35.308594 41.5625 34.242188 41.5625 33.101562 Z M 41.5625 33.101562 "/>
</g>
</svg>
