<?xml version="1.0" encoding="UTF-8"?>
<svg xmlns="http://www.w3.org/2000/svg" xmlns:xlink="http://www.w3.org/1999/xlink" width="128px" height="128px" viewBox="0 0 128 128" version="1.1">
<g id="surface1">
<path style=" stroke:none;fill-rule:nonzero;fill:rgb(98.823529%,80.784315%,96.862745%);fill-opacity:1;" d="M 68.414062 0 C 71.503906 1.324219 74.300781 3.089844 77.167969 4.929688 C 78.835938 5.957031 80.527344 6.988281 82.242188 8.019531 C 84.792969 9.636719 87.367188 11.253906 89.96875 12.875 C 92.859375 14.6875 95.78125 16.453125 98.722656 18.171875 C 99.457031 18.660156 100.21875 19.125 101.003906 19.566406 C 102.472656 20.449219 103.945312 21.332031 105.417969 22.214844 C 115.9375 28.542969 115.9375 28.542969 117.699219 33.101562 C 117.847656 35.089844 117.921875 37.074219 117.921875 39.0625 C 117.921875 39.652344 117.921875 40.238281 117.921875 40.828125 C 117.921875 42.839844 117.921875 44.824219 117.921875 46.785156 C 117.921875 48.160156 117.921875 49.53125 117.921875 50.90625 C 117.921875 53.800781 117.921875 56.667969 117.921875 59.511719 C 117.921875 63.191406 117.945312 66.867188 117.996094 70.546875 C 117.996094 73.390625 117.996094 76.234375 117.996094 79.082031 C 117.996094 80.453125 117.996094 81.800781 117.996094 83.125 C 117.996094 85.039062 117.996094 86.953125 117.996094 88.863281 C 117.996094 89.402344 117.996094 89.96875 117.996094 90.554688 C 117.921875 94.527344 117.113281 96.957031 114.242188 99.824219 C 110.269531 102.914062 106.003906 105.488281 101.589844 108.0625 C 97.175781 110.566406 92.835938 113.214844 88.570312 115.9375 C 83.9375 118.804688 79.226562 121.671875 74.59375 124.542969 C 74.152344 124.789062 73.6875 125.058594 73.195312 125.351562 C 69.074219 127.851562 65.839844 128.589844 61.058594 128 C 55.90625 125.941406 51.199219 122.925781 46.566406 119.980469 C 45.242188 119.097656 43.894531 118.242188 42.519531 117.40625 C 41.832031 116.964844 41.121094 116.523438 40.386719 116.082031 C 38.179688 114.710938 35.972656 113.359375 33.765625 112.035156 C 33.03125 111.59375 32.269531 111.128906 31.484375 110.640625 C 30.0625 109.804688 28.640625 108.945312 27.21875 108.0625 C 12.136719 99.015625 12.136719 99.015625 10.300781 93.425781 C 10.199219 91.5625 10.152344 89.699219 10.152344 87.835938 C 10.152344 87.296875 10.152344 86.730469 10.152344 86.140625 C 10.101562 84.277344 10.078125 82.414062 10.078125 80.550781 C 10.078125 79.59375 10.078125 79.59375 10.078125 78.640625 C 10.078125 75.207031 10.054688 71.796875 10.003906 68.414062 C 10.003906 65.617188 10.003906 62.824219 10.003906 60.027344 C 9.957031 56.644531 9.929688 53.261719 9.929688 49.875 C 9.929688 48.601562 9.90625 47.324219 9.859375 46.050781 C 9.710938 33.765625 9.710938 33.765625 12.945312 29.71875 C 14.34375 28.320312 15.667969 27.144531 17.289062 26.113281 C 17.925781 25.722656 18.5625 25.304688 19.199219 24.863281 C 19.886719 24.421875 20.597656 23.980469 21.332031 23.539062 C 22.070312 23.097656 22.828125 22.632812 23.613281 22.140625 C 26.066406 20.621094 28.542969 19.101562 31.042969 17.582031 C 31.925781 17.042969 32.832031 16.503906 33.765625 15.964844 C 35.140625 15.128906 36.511719 14.296875 37.886719 13.460938 C 43.179688 10.273438 48.476562 7.0625 53.773438 3.824219 C 54.414062 3.433594 55.074219 3.039062 55.761719 2.648438 C 56.300781 2.304688 56.863281 1.9375 57.453125 1.542969 C 61.058594 -0.589844 64.292969 -0.660156 68.414062 0 Z M 68.414062 0 "/>
<path style=" stroke:none;fill-rule:nonzero;fill:rgb(76.47059%,1.176471%,93.725491%);fill-opacity:1;" d="M 42.960938 53.628906 C 43.746094 53.628906 44.554688 53.628906 45.386719 53.628906 C 46.269531 53.628906 47.152344 53.628906 48.035156 53.628906 C 48.917969 53.628906 49.828125 53.628906 50.757812 53.628906 C 53.601562 53.628906 56.472656 53.628906 59.367188 53.628906 C 61.277344 53.628906 63.214844 53.652344 65.175781 53.699219 C 69.933594 53.699219 74.691406 53.699219 79.449219 53.699219 C 78.933594 56.054688 78.125 57.746094 76.800781 59.734375 C 76.503906 60.273438 76.1875 60.8125 75.84375 61.351562 C 75.402344 61.941406 75.402344 61.941406 75.035156 62.527344 C 75.695312 62.015625 75.695312 62.015625 76.433594 61.425781 C 77.976562 60.320312 77.976562 60.320312 79.449219 60.320312 C 79.449219 59.832031 79.449219 59.339844 79.449219 58.851562 C 81.433594 57.820312 82.980469 58.042969 85.261719 58.042969 C 86.09375 58.042969 86.953125 58.042969 87.835938 58.042969 C 88.71875 58.042969 89.625 58.042969 90.554688 58.042969 C 91.488281 58.042969 92.421875 58.066406 93.351562 58.113281 C 95.558594 58.113281 97.789062 58.113281 100.046875 58.113281 C 100.09375 62.332031 100.144531 66.527344 100.191406 70.695312 C 100.191406 72.117188 100.21875 73.5625 100.265625 75.035156 C 100.316406 77.09375 100.339844 79.128906 100.339844 81.140625 C 100.339844 81.777344 100.363281 82.441406 100.414062 83.125 C 100.414062 89.453125 97.691406 93.058594 93.5 97.691406 C 92.859375 98.378906 92.222656 99.066406 91.585938 99.75 C 88.71875 102.472656 86.140625 103.210938 82.242188 103.136719 C 81.140625 103.136719 81.140625 103.136719 80.035156 103.136719 C 79.253906 103.136719 78.46875 103.136719 77.683594 103.136719 C 76.847656 103.136719 76.015625 103.136719 75.179688 103.136719 C 72.632812 103.136719 70.058594 103.109375 67.457031 103.0625 C 65.691406 103.0625 63.925781 103.0625 62.160156 103.0625 C 57.894531 103.0625 53.601562 103.039062 49.289062 102.988281 C 50.171875 100.414062 51.199219 98.5 52.964844 96.441406 C 53.359375 95.902344 53.773438 95.386719 54.214844 94.898438 C 54.65625 94.355469 55.097656 93.816406 55.539062 93.277344 C 55.980469 92.738281 56.421875 92.199219 56.863281 91.660156 C 61.425781 86.140625 61.425781 86.140625 63.632812 85.847656 C 64.367188 85.847656 65.101562 85.847656 65.839844 85.847656 C 66.671875 85.800781 67.507812 85.773438 68.339844 85.773438 C 69.175781 85.726562 70.03125 85.699219 70.914062 85.699219 C 72.582031 85.652344 74.25 85.601562 75.917969 85.554688 C 76.652344 85.554688 77.414062 85.554688 78.199219 85.554688 C 80.40625 85.40625 80.40625 85.40625 83.125 83.863281 C 83.125 80.183594 83.125 76.578125 83.125 72.828125 C 71.210938 72.828125 59.367188 72.828125 47.082031 72.828125 C 47.082031 78.199219 47.082031 83.496094 47.082031 89.011719 C 44.285156 93.058594 42.371094 95.410156 38.988281 98.574219 C 38.398438 99.410156 37.8125 100.21875 37.222656 101.003906 C 35.308594 102.988281 35.308594 102.988281 33.839844 103.210938 C 31.632812 103.0625 31.632812 103.0625 29.425781 102.988281 C 29.375 97.300781 29.328125 91.609375 29.277344 85.921875 C 29.277344 84.007812 29.253906 82.097656 29.203125 80.183594 C 29.15625 77.386719 29.132812 74.59375 29.132812 71.796875 C 29.132812 70.964844 29.105469 70.105469 29.058594 69.222656 C 29.058594 63.632812 29.644531 60.910156 33.542969 56.9375 C 36.78125 54.289062 38.839844 53.628906 42.960938 53.628906 Z M 42.960938 53.628906 "/>
<path style=" stroke:none;fill-rule:nonzero;fill:rgb(36.470589%,1.568628%,97.254902%);fill-opacity:1;" d="M 82.390625 58.113281 C 88.203125 58.113281 94.015625 58.113281 100.046875 58.113281 C 100.09375 62.332031 100.144531 66.527344 100.191406 70.695312 C 100.191406 72.117188 100.21875 73.5625 100.265625 75.035156 C 100.316406 77.09375 100.339844 79.128906 100.339844 81.140625 C 100.339844 81.777344 100.363281 82.441406 100.414062 83.125 C 100.414062 89.453125 97.691406 93.058594 93.5 97.691406 C 92.542969 98.722656 92.542969 98.722656 91.585938 99.75 C 88.71875 102.472656 86.140625 103.210938 82.242188 103.136719 C 81.140625 103.136719 81.140625 103.136719 80.035156 103.136719 C 79.253906 103.136719 78.46875 103.136719 77.683594 103.136719 C 76.847656 103.136719 76.015625 103.136719 75.179688 103.136719 C 72.632812 103.136719 70.058594 103.109375 67.457031 103.0625 C 65.691406 103.0625 63.925781 103.0625 62.160156 103.0625 C 57.894531 103.0625 53.601562 103.039062 49.289062 102.988281 C 50.171875 100.414062 51.199219 98.5 52.964844 96.441406 C 53.554688 95.632812 53.554688 95.632812 54.214844 94.898438 C 54.65625 94.355469 55.097656 93.816406 55.539062 93.277344 C 55.980469 92.738281 56.421875 92.199219 56.863281 91.660156 C 61.425781 86.140625 61.425781 86.140625 63.632812 85.847656 C 64.367188 85.847656 65.101562 85.847656 65.839844 85.847656 C 66.671875 85.800781 67.507812 85.773438 68.339844 85.773438 C 69.175781 85.726562 70.03125 85.699219 70.914062 85.699219 C 72.582031 85.652344 74.25 85.601562 75.917969 85.554688 C 76.652344 85.554688 77.414062 85.554688 78.199219 85.554688 C 80.40625 85.40625 80.40625 85.40625 83.125 83.863281 C 82.757812 71.136719 82.757812 71.136719 82.390625 58.113281 Z M 82.390625 58.113281 "/>
<path style=" stroke:none;fill-rule:nonzero;fill:rgb(98.431373%,4.705882%,63.921571%);fill-opacity:1;" d="M 48.035156 24.863281 C 48.578125 24.863281 49.140625 24.863281 49.730469 24.863281 C 51.496094 24.863281 53.285156 24.863281 55.097656 24.863281 C 56.375 24.863281 57.625 24.863281 58.851562 24.863281 C 62.136719 24.863281 65.421875 24.890625 68.707031 24.9375 C 72.09375 24.9375 75.453125 24.9375 78.785156 24.9375 C 85.40625 24.9375 92.003906 24.960938 98.574219 25.011719 C 97.886719 25.941406 97.203125 26.875 96.515625 27.808594 C 96.121094 28.296875 95.730469 28.8125 95.339844 29.351562 C 94.945312 29.84375 94.554688 30.355469 94.160156 30.898438 C 93.644531 31.632812 93.644531 31.632812 93.058594 32.367188 C 92.078125 33.644531 91.097656 34.917969 90.113281 36.191406 C 89.773438 36.632812 89.429688 37.101562 89.085938 37.589844 C 88.789062 37.984375 88.472656 38.398438 88.128906 38.839844 C 87.835938 39.234375 87.539062 39.625 87.246094 40.019531 C 84.820312 42.519531 82.539062 43.992188 79.082031 44.503906 C 78.148438 44.503906 77.191406 44.503906 76.210938 44.503906 C 75.402344 44.503906 75.402344 44.503906 74.667969 44.503906 C 72.949219 44.457031 71.210938 44.433594 69.445312 44.433594 C 68.265625 44.433594 67.089844 44.433594 65.914062 44.433594 C 62.773438 44.382812 59.609375 44.359375 56.421875 44.359375 C 53.234375 44.308594 50.046875 44.285156 46.859375 44.285156 C 40.535156 44.234375 34.230469 44.1875 27.953125 44.136719 C 28.617188 41.046875 30.160156 38.988281 32.148438 36.5625 C 32.492188 36.121094 32.832031 35.679688 33.175781 35.238281 C 41.417969 24.789062 41.417969 24.789062 48.035156 24.863281 Z M 48.035156 24.863281 "/>
<path style=" stroke:none;fill-rule:nonzero;fill:rgb(69.411767%,52.156866%,88.235295%);fill-opacity:1;" d="M 82.390625 58.113281 C 83.9375 62.75 83.125 67.898438 83.125 72.828125 C 71.503906 72.828125 59.808594 72.828125 47.816406 72.828125 C 47.816406 72.582031 47.816406 72.335938 47.816406 72.09375 C 48.304688 72.09375 48.796875 72.117188 49.289062 72.164062 C 59.4375 72.976562 59.4375 72.976562 68.414062 69.371094 C 70.398438 67.308594 72.019531 64.957031 73.5625 62.527344 C 74.054688 62.039062 74.542969 61.546875 75.035156 61.058594 C 75.035156 61.546875 75.035156 62.039062 75.035156 62.527344 C 75.476562 62.183594 75.941406 61.816406 76.433594 61.425781 C 77.976562 60.320312 77.976562 60.320312 79.449219 60.320312 C 79.449219 59.832031 79.449219 59.339844 79.449219 58.851562 C 80.917969 58.113281 80.917969 58.113281 82.390625 58.113281 Z M 82.390625 58.113281 "/>
<path style=" stroke:none;fill-rule:nonzero;fill:rgb(56.470591%,30.588236%,90.588236%);fill-opacity:1;" d="M 82.390625 58.113281 C 83.347656 60.910156 83.199219 63.484375 83.199219 66.355469 C 83.199219 66.894531 83.175781 67.457031 83.125 68.046875 C 83.125 69.371094 83.125 70.71875 83.125 72.09375 C 80.699219 72.09375 78.269531 72.09375 75.769531 72.09375 C 75.179688 69.148438 74.960938 66.941406 75.769531 64 C 76.261719 64.492188 76.75 64.980469 77.242188 65.472656 C 77.386719 64.980469 77.535156 64.515625 77.683594 64.074219 C 77.878906 63.4375 78.074219 62.824219 78.269531 62.234375 C 78.46875 61.597656 78.640625 60.984375 78.785156 60.394531 C 79.667969 58.410156 80.257812 58.113281 82.390625 58.113281 Z M 82.390625 58.113281 "/>
<path style=" stroke:none;fill-rule:nonzero;fill:rgb(44.705883%,16.078432%,84.313726%);fill-opacity:1;" d="M 83.863281 72.09375 C 84.105469 72.09375 84.351562 72.09375 84.597656 72.09375 C 84.695312 74.003906 84.769531 75.917969 84.820312 77.828125 C 84.820312 78.640625 84.820312 78.640625 84.890625 79.449219 C 84.890625 81.066406 84.890625 81.066406 84.597656 83.863281 C 83.125 85.1875 83.125 85.1875 81.65625 86.070312 C 81.289062 87.171875 81.289062 87.171875 80.917969 88.277344 C 80.429688 88.03125 79.9375 87.785156 79.449219 87.539062 C 78.171875 87.492188 76.898438 87.464844 75.621094 87.464844 C 74.445312 87.464844 74.445312 87.464844 73.269531 87.464844 C 72.484375 87.464844 71.699219 87.464844 70.914062 87.464844 C 70.128906 87.464844 69.320312 87.492188 68.488281 87.539062 C 66.476562 87.539062 64.492188 87.539062 62.527344 87.539062 C 62.285156 88.277344 62.039062 89.011719 61.792969 89.746094 C 61.300781 89.746094 60.8125 89.746094 60.320312 89.746094 C 60.078125 90.484375 59.832031 91.21875 59.585938 91.953125 C 59.097656 91.953125 58.605469 91.953125 58.113281 91.953125 C 57.917969 92.394531 57.699219 92.835938 57.453125 93.277344 C 56.644531 94.898438 56.644531 94.898438 55.171875 97.101562 C 54.4375 96.859375 53.699219 96.613281 52.964844 96.367188 C 54.289062 94.796875 55.613281 93.230469 56.9375 91.660156 C 57.332031 91.167969 57.722656 90.703125 58.113281 90.261719 C 60.984375 86.878906 60.984375 86.878906 61.792969 86.070312 C 63.117188 85.972656 64.441406 85.921875 65.765625 85.921875 C 66.597656 85.871094 67.433594 85.847656 68.265625 85.847656 C 69.984375 85.800781 71.699219 85.75 73.417969 85.699219 C 74.25 85.652344 75.082031 85.628906 75.917969 85.628906 C 76.652344 85.578125 77.414062 85.554688 78.199219 85.554688 C 80.183594 85.332031 81.433594 84.890625 83.125 83.863281 C 83.125 83.078125 83.125 82.292969 83.125 81.507812 C 83.125 80.476562 83.101562 79.449219 83.054688 78.417969 C 83.054688 77.878906 83.054688 77.339844 83.054688 76.800781 C 83.054688 75.476562 83.078125 74.152344 83.125 72.828125 C 83.371094 72.582031 83.617188 72.335938 83.863281 72.09375 Z M 83.863281 72.09375 "/>
<path style=" stroke:none;fill-rule:nonzero;fill:rgb(36.078432%,9.019608%,81.176472%);fill-opacity:1;" d="M 52.230469 97.101562 C 53.039062 98.5 53.039062 98.5 53.699219 100.046875 C 53.457031 100.535156 53.210938 101.027344 52.964844 101.515625 C 52.476562 101.273438 51.984375 101.027344 51.496094 100.78125 C 51.496094 101.273438 51.496094 101.761719 51.496094 102.253906 C 55.761719 102.15625 60.027344 102.058594 64.292969 101.957031 C 65.765625 101.957031 67.238281 101.933594 68.707031 101.886719 C 70.816406 101.835938 72.902344 101.785156 74.960938 101.738281 C 75.597656 101.738281 76.261719 101.738281 76.945312 101.738281 C 80.992188 101.589844 84.964844 101.296875 89.011719 100.78125 C 88.644531 99.308594 88.644531 99.308594 88.277344 97.839844 C 89.746094 97.839844 91.21875 97.839844 92.691406 97.839844 C 90.703125 100.632812 89.304688 101.957031 86.070312 102.988281 C 84.230469 103.136719 84.230469 103.136719 82.242188 103.136719 C 81.140625 103.136719 81.140625 103.136719 80.035156 103.136719 C 79.253906 103.136719 78.46875 103.136719 77.683594 103.136719 C 76.847656 103.136719 76.015625 103.136719 75.179688 103.136719 C 72.632812 103.136719 70.058594 103.109375 67.457031 103.0625 C 65.691406 103.0625 63.925781 103.0625 62.160156 103.0625 C 57.894531 103.0625 53.601562 103.039062 49.289062 102.988281 C 50.097656 100.78125 50.90625 99.089844 52.230469 97.101562 Z M 52.230469 97.101562 "/>
<path style=" stroke:none;fill-rule:nonzero;fill:rgb(36.078432%,6.27451%,75.686276%);fill-opacity:1;" d="M 83.863281 58.113281 C 89.230469 58.113281 94.527344 58.113281 100.046875 58.113281 C 100.09375 62.332031 100.144531 66.527344 100.191406 70.695312 C 100.191406 72.117188 100.21875 73.5625 100.265625 75.035156 C 100.316406 77.09375 100.339844 79.128906 100.339844 81.140625 C 100.339844 81.777344 100.363281 82.441406 100.414062 83.125 C 100.414062 89.378906 97.542969 93.277344 93.425781 97.839844 C 93.179688 97.839844 92.933594 97.839844 92.691406 97.839844 C 92.691406 96.613281 92.691406 95.386719 92.691406 94.160156 C 93.914062 93.671875 95.140625 93.179688 96.367188 92.691406 C 96.367188 91.464844 96.367188 90.238281 96.367188 89.011719 C 97.101562 89.011719 97.839844 89.011719 98.574219 89.011719 C 98.796875 79.082031 99.089844 69.074219 99.308594 58.851562 C 94.234375 58.851562 89.085938 58.851562 83.863281 58.851562 C 83.863281 58.605469 83.863281 58.359375 83.863281 58.113281 Z M 83.863281 58.113281 "/>
<path style=" stroke:none;fill-rule:nonzero;fill:rgb(38.431373%,5.098039%,89.411765%);fill-opacity:1;" d="M 82.390625 58.113281 C 87.980469 58.335938 93.574219 58.628906 99.308594 58.851562 C 99.308594 68.046875 99.308594 77.316406 99.308594 86.804688 C 99.066406 86.804688 98.820312 86.804688 98.574219 86.804688 C 98.574219 77.828125 98.574219 68.855469 98.574219 59.585938 C 92.394531 59.953125 92.394531 59.953125 86.070312 60.320312 C 85.847656 62.234375 85.554688 64.21875 85.332031 66.207031 C 84.597656 66.207031 83.863281 66.207031 83.125 66.207031 C 82.90625 63.558594 82.613281 60.835938 82.390625 58.113281 Z M 82.390625 58.113281 "/>
<path style=" stroke:none;fill-rule:nonzero;fill:rgb(34.117648%,4.705882%,93.725491%);fill-opacity:1;" d="M 58.113281 91.953125 C 58.605469 92.199219 59.097656 92.445312 59.585938 92.691406 C 58.777344 95.191406 57.746094 96.074219 55.90625 97.839844 C 55.664062 98.328125 55.417969 98.820312 55.171875 99.308594 C 55.664062 99.308594 56.152344 99.308594 56.644531 99.308594 C 56.890625 99.800781 57.132812 100.292969 57.378906 100.78125 C 59.21875 100.855469 60.835938 100.855469 62.675781 100.339844 C 64 100.046875 64 100.046875 65.472656 100.78125 C 67.578125 100.929688 69.6875 101.074219 71.796875 101.222656 C 72.386719 101.222656 73 101.246094 73.636719 101.296875 C 75.058594 101.394531 76.503906 101.46875 77.976562 101.515625 C 77.976562 101.761719 77.976562 102.007812 77.976562 102.253906 C 69.222656 102.253906 60.46875 102.253906 51.496094 102.253906 C 51.496094 101.761719 51.496094 101.273438 51.496094 100.78125 C 51.984375 100.535156 52.476562 100.292969 52.964844 100.046875 C 52.964844 99.066406 52.964844 98.085938 52.964844 97.101562 C 53.699219 97.101562 54.4375 97.101562 55.171875 97.101562 C 55.367188 96.660156 55.589844 96.21875 55.835938 95.78125 C 56.644531 94.160156 56.644531 94.160156 58.113281 91.953125 Z M 58.113281 91.953125 "/>
<path style=" stroke:none;fill-rule:nonzero;fill:rgb(81.960785%,45.490196%,96.078432%);fill-opacity:1;" d="M 74.300781 61.058594 C 74.789062 61.792969 75.28125 62.527344 75.769531 63.265625 C 75.476562 63.558594 75.15625 63.851562 74.8125 64.148438 C 73.488281 65.472656 73.488281 65.472656 72.535156 67.238281 C 70.769531 70.03125 69.371094 71.796875 66.207031 72.828125 C 64.785156 72.875 63.363281 72.902344 61.941406 72.902344 C 61.15625 72.902344 60.320312 72.902344 59.4375 72.902344 C 58.605469 72.902344 57.746094 72.902344 56.863281 72.902344 C 56.03125 72.902344 55.148438 72.875 54.214844 72.828125 C 52.105469 72.828125 49.972656 72.828125 47.816406 72.828125 C 47.816406 72.582031 47.816406 72.335938 47.816406 72.09375 C 48.550781 72.09375 48.550781 72.09375 49.289062 72.164062 C 59.4375 72.976562 59.4375 72.976562 68.414062 69.371094 C 70.839844 66.941406 72.753906 64.148438 74.300781 61.058594 Z M 74.300781 61.058594 "/>
<path style=" stroke:none;fill-rule:nonzero;fill:rgb(60.784316%,40.784314%,84.705883%);fill-opacity:1;" d="M 80.917969 58.113281 C 81.410156 58.359375 81.898438 58.605469 82.390625 58.851562 C 82.046875 59.195312 81.703125 59.5625 81.359375 59.953125 C 80.183594 61.792969 80.035156 62.601562 79.816406 64.734375 C 79.59375 67.308594 79.082031 68.707031 77.242188 70.621094 C 78.710938 70.867188 80.183594 71.109375 81.65625 71.355469 C 81.65625 71.601562 81.65625 71.847656 81.65625 72.09375 C 79.742188 72.09375 77.757812 72.09375 75.769531 72.09375 C 75.179688 69.148438 74.960938 66.941406 75.769531 64 C 76.261719 64.492188 76.75 64.980469 77.242188 65.472656 C 77.386719 64.980469 77.535156 64.515625 77.683594 64.074219 C 77.878906 63.4375 78.074219 62.824219 78.269531 62.234375 C 78.46875 61.597656 78.640625 60.984375 78.785156 60.394531 C 79.449219 58.851562 79.449219 58.851562 80.917969 58.113281 Z M 80.917969 58.113281 "/>
<path style=" stroke:none;fill-rule:nonzero;fill:rgb(37.254903%,12.54902%,78.823531%);fill-opacity:1;" d="M 63.632812 85.996094 C 64.734375 85.996094 64.734375 85.996094 65.914062 85.996094 C 66.648438 86.042969 67.382812 86.070312 68.121094 86.070312 C 69.003906 86.070312 69.003906 86.070312 69.886719 86.070312 C 69.886719 86.3125 69.886719 86.558594 69.886719 86.804688 C 67.457031 87.023438 65.03125 87.320312 62.527344 87.539062 C 62.285156 88.277344 62.039062 89.011719 61.792969 89.746094 C 61.300781 89.746094 60.8125 89.746094 60.320312 89.746094 C 60.078125 90.484375 59.832031 91.21875 59.585938 91.953125 C 59.097656 91.953125 58.605469 91.953125 58.113281 91.953125 C 57.917969 92.394531 57.699219 92.835938 57.453125 93.277344 C 56.644531 94.898438 56.644531 94.898438 55.171875 97.101562 C 54.4375 96.859375 53.699219 96.613281 52.964844 96.367188 C 54.289062 94.796875 55.613281 93.230469 56.9375 91.660156 C 57.332031 91.167969 57.722656 90.703125 58.113281 90.261719 C 61.644531 86.070312 61.644531 86.070312 63.632812 85.996094 Z M 63.632812 85.996094 "/>
<path style=" stroke:none;fill-rule:nonzero;fill:rgb(40.784314%,9.411765%,82.352942%);fill-opacity:1;" d="M 98.574219 86.804688 C 98.820312 86.804688 99.066406 86.804688 99.308594 86.804688 C 99.605469 89.304688 99.382812 90.335938 98.058594 92.46875 C 97.25 93.425781 97.25 93.425781 96.441406 94.382812 C 95.902344 95.019531 95.339844 95.679688 94.75 96.367188 C 94.308594 96.859375 93.867188 97.347656 93.425781 97.839844 C 93.179688 97.839844 92.933594 97.839844 92.691406 97.839844 C 92.691406 96.613281 92.691406 95.386719 92.691406 94.160156 C 93.914062 93.671875 95.140625 93.179688 96.367188 92.691406 C 96.367188 91.464844 96.367188 90.238281 96.367188 89.011719 C 97.101562 89.011719 97.839844 89.011719 98.574219 89.011719 C 98.574219 88.277344 98.574219 87.539062 98.574219 86.804688 Z M 98.574219 86.804688 "/>
<path style=" stroke:none;fill-rule:nonzero;fill:rgb(41.176471%,9.803922%,85.09804%);fill-opacity:1;" d="M 88.277344 97.839844 C 89.746094 97.839844 91.21875 97.839844 92.691406 97.839844 C 90.554688 100.929688 89.011719 102.105469 85.332031 102.988281 C 85.332031 102.253906 85.332031 101.515625 85.332031 100.78125 C 86.558594 100.78125 87.785156 100.78125 89.011719 100.78125 C 88.765625 99.800781 88.519531 98.820312 88.277344 97.839844 Z M 88.277344 97.839844 "/>
<path style=" stroke:none;fill-rule:nonzero;fill:rgb(37.64706%,4.313726%,94.117647%);fill-opacity:1;" d="M 83.125 66.207031 C 84.597656 66.207031 86.070312 66.207031 87.539062 66.207031 C 87.050781 67.1875 86.558594 68.167969 86.070312 69.148438 C 85.578125 68.902344 85.089844 68.660156 84.597656 68.414062 C 84.351562 69.886719 84.105469 71.355469 83.863281 72.828125 C 83.617188 72.828125 83.371094 72.828125 83.125 72.828125 C 83.125 70.621094 83.125 68.488281 83.125 66.207031 Z M 83.125 66.207031 "/>
</g>
</svg>
